{
.appVersion = "1216";
DisplayStrings = (
"n/a.ss01 n\012nan"
);
copyright = "Copyright (c) 2013 by Jacques Le Bailly. All rights reserved.";
customParameters = (
{
name = description;
value = "Copyright (c) 2013 by Jacques Le Bailly. All rights reserved.";
},
{
name = vendorID;
value = bvf;
},
{
name = unicodeRanges;
value = (
0
);
},
{
name = codePageRanges;
value = (
1252
);
},
{
name = glyphOrder;
value = (
A,
Aogonek,
AE,
B,
C,
D,
Eth,
E,
Eogonek,
F,
G,
H,
Hbar,
I,
Iogonek,
I_J.loclNLD,
J,
K,
L,
Lcaron,
Ldot,
Lslash,
M,
N,
Eng,
O,
Oslash,
Ohorn,
Oogonek,
OE,
P,
Thorn,
Q,
R,
S,
Germandbls,
Schwa,
T,
Tbar,
U,
Uogonek,
Uhorn,
V,
W,
X,
Y,
Z,
a,
aogonek,
ae,
b,
c,
d,
dcaron,
dcroat,
eth,
e,
eogonek,
f,
g,
h,
hbar,
i,
idotless,
iogonek,
i_j.loclNLD,
j,
jdotless,
k,
kgreenlandic,
l,
ldot,
lcaron,
lslash,
m,
n,
eng,
o,
oogonek,
oslash,
ohorn,
oe,
p,
thorn,
q,
r,
s,
germandbls,
schwa,
t,
tbar,
tcaron,
u,
uogonek,
uhorn,
v,
w,
x,
y,
z
);
}
);
date = "2013-08-08 13:48:03 +0000";
disablesNiceNames = 1;
familyName = "LV UpItalic";
featurePrefixes = (
{
automatic = 1;
code = "languagesystem DFLT dflt;\012";
name = Languagesystems;
}
);
features = (
{
automatic = 1;
code = "feature sups;\012feature frac;\012feature ordn;\012feature salt;\012feature ss01;\012";
name = aalt;
},
{
automatic = 1;
code = "sub one by onesuperior;\012sub two by twosuperior;\012sub three by threesuperior;\012";
name = sups;
},
{
automatic = 1;
code = "sub one slash four by onequarter;\012sub one slash two by onehalf;\012sub three slash four by threequarters;\012";
name = frac;
},
{
automatic = 1;
code = "sub [zero one two three four five six seven eight nine] [A a]' by ordfeminine;\012sub [zero one two three four five six seven eight nine] [O o]' by ordmasculine;\012";
name = ordn;
},
{
automatic = 1;
code = "sub f i by fi;\012sub f l by fl;\012";
name = liga;
},
{
automatic = 1;
code = "sub e by e.ss01;\012";
name = salt;
},
{
automatic = 1;
code = "sub e by e.ss01;\012";
name = ss01;
}
);

glyphs = (
{
color = 3;
glyphname = A;
lastChange = "2019-02-19 16:30:57 +0000";
layers = (
{
background = {
paths = (
{
closed = 1;
nodes = (
"68 0 LINE",
"362 644 LINE",
"330 644 LINE",
"625 0 LINE",
"710 0 LINE",
"382 710 LINE",
"311 710 LINE",
"-17 0 LINE"
);
},
{
closed = 1;
nodes = (
"596 158 LINE",
"578 227 LINE",
"117 227 LINE",
"101 158 LINE"
);
}
);
};
layerId = "A3B50665-EA37-4AC6-885C-1233CA61B6BD";
paths = (
{
closed = 1;
nodes = (
"88 0 LINE",
"362 644 LINE",
"330 644 LINE",
"605 0 LINE",
"690 0 LINE",
"382 710 LINE",
"311 710 LINE",
"3 0 LINE"
);
},
{
closed = 1;
nodes = (
"566 188 LINE",
"548 257 LINE",
"147 257 LINE",
"131 188 LINE"
);
}
);
width = 693;
},
{
background = {
paths = (
{
closed = 1;
nodes = (
"1033 0 LINE",
"1299 589 LINE",
"1243 591 LINE",
"1502 0 LINE",
"1661 0 LINE",
"1338 710 LINE",
"1207 710 LINE",
"874 0 LINE"
);
},
{
closed = 1;
nodes = (
"1512 129 LINE",
"1450 259 LINE",
"1095 259 LINE",
"1033 129 LINE"
);
},
{
closed = 1;
nodes = (
"69 0 LINE",
"343 644 LINE",
"311 644 LINE",
"586 0 LINE",
"671 0 LINE",
"363 710 LINE",
"292 710 LINE",
"-16 0 LINE"
);
},
{
closed = 1;
nodes = (
"547 188 LINE",
"529 257 LINE",
"128 257 LINE",
"112 188 LINE"
);
}
);
};
layerId = "014D4A40-7C7F-4023-B30E-1F55CE5EA091";
paths = (
{
closed = 1;
nodes = (
"156 0 LINE",
"399 589 LINE",
"343 591 LINE",
"581 0 LINE",
"738 0 LINE",
"438 710 LINE",
"307 710 LINE",
"-3 0 LINE"
);
},
{
closed = 1;
nodes = (
"589 149 LINE",
"527 279 LINE",
"218 279 LINE",
"156 149 LINE"
);
}
);
width = 739;
}
);
unicode = 0041;
},
{
color = 3;
glyphname = D;
lastChange = "2019-02-19 16:31:01 +0000";
layers = (
{
background = {
paths = (
{
closed = 1;
nodes = (
"574 -8 OFFCURVE",
"727 153 OFFCURVE",
"727 361 CURVE SMOOTH",
"727 569 OFFCURVE",
"579 720 OFFCURVE",
"373 720 CURVE SMOOTH",
"161 720 OFFCURVE",
"5 552 OFFCURVE",
"5 345 CURVE SMOOTH",
"5 141 OFFCURVE",
"154 -8 OFFCURVE",
"361 -8 CURVE SMOOTH"
);
},
{
closed = 1;
nodes = (
"199 67 OFFCURVE",
"87 187 OFFCURVE",
"87 346 CURVE SMOOTH",
"87 517 OFFCURVE",
"206 645 OFFCURVE",
"371 645 CURVE SMOOTH",
"532 645 OFFCURVE",
"645 519 OFFCURVE",
"645 358 CURVE SMOOTH",
"645 183 OFFCURVE",
"527 67 OFFCURVE",
"361 67 CURVE SMOOTH"
);
}
);
};
layerId = "A3B50665-EA37-4AC6-885C-1233CA61B6BD";
paths = (
{
closed = 1;
nodes = (
"336 0 LINE SMOOTH",
"568 0 OFFCURVE",
"717 135 OFFCURVE",
"717 359 CURVE SMOOTH",
"717 585 OFFCURVE",
"572 710 OFFCURVE",
"312 710 CURVE SMOOTH",
"79 710 LINE",
"79 0 LINE"
);
},
{
closed = 1;
nodes = (
"162 635 LINE",
"315 635 LINE SMOOTH",
"537 635 OFFCURVE",
"634 537 OFFCURVE",
"634 354 CURVE SMOOTH",
"634 176 OFFCURVE",
"534 75 OFFCURVE",
"337 75 CURVE SMOOTH",
"162 75 LINE"
);
}
);
width = 776;
},
{
background = {
paths = (
{
closed = 1;
nodes = (
"608 -10 OFFCURVE",
"748 174 OFFCURVE",
"748 362 CURVE SMOOTH",
"748 578 OFFCURVE",
"593 720 OFFCURVE",
"383 720 CURVE SMOOTH",
"147 720 OFFCURVE",
"6 534 OFFCURVE",
"6 346 CURVE SMOOTH",
"6 131 OFFCURVE",
"160 -10 OFFCURVE",
"371 -10 CURVE SMOOTH"
);
},
{
closed = 1;
nodes = (
"249 126 OFFCURVE",
"164 209 OFFCURVE",
"164 349 CURVE SMOOTH",
"164 484 OFFCURVE",
"249 586 OFFCURVE",
"381 586 CURVE SMOOTH",
"503 586 OFFCURVE",
"590 500 OFFCURVE",
"590 359 CURVE SMOOTH",
"590 220 OFFCURVE",
"510 126 OFFCURVE",
"373 126 CURVE SMOOTH"
);
}
);
};
layerId = "014D4A40-7C7F-4023-B30E-1F55CE5EA091";
paths = (
{
closed = 1;
nodes = (
"344 0 LINE SMOOTH",
"603 0 OFFCURVE",
"738 171 OFFCURVE",
"738 359 CURVE SMOOTH",
"738 580 OFFCURVE",
"593 710 OFFCURVE",
"309 710 CURVE SMOOTH",
"69 710 LINE",
"69 0 LINE"
);
},
{
closed = 1;
nodes = (
"225 573 LINE",
"329 573 LINE SMOOTH",
"506 573 OFFCURVE",
"579 496 OFFCURVE",
"579 354 CURVE SMOOTH",
"579 221 OFFCURVE",
"497 139 OFFCURVE",
"355 139 CURVE SMOOTH",
"225 139 LINE"
);
}
);
width = 777;
}
);
leftMetricsKey = H;
rightMetricsKey = O;
unicode = 0044;
},
{
color = 3;
glyphname = H;
lastChange = "2019-02-24 23:58:58 +0000";
layers = (
{
background = {
anchors = (
{
name = bottom;
position = "{377, 0}";
},
{
name = center;
position = "{377, 362}";
},
{
name = top;
position = "{376, 712}";
},
{
name = topleft;
position = "{22, 712}";
}
);
paths = (
{
closed = 1;
nodes = (
"663 0 LINE",
"663 712 LINE",
"608 712 LINE",
"608 0 LINE"
);
},
{
closed = 1;
nodes = (
"144 0 LINE",
"144 712 LINE",
"90 712 LINE",
"90 0 LINE"
);
},
{
closed = 1;
nodes = (
"637 337 LINE",
"637 386 LINE",
"124 386 LINE",
"124 337 LINE"
);
}
);
};
layerId = "A3B50665-EA37-4AC6-885C-1233CA61B6BD";
paths = (
{
closed = 1;
nodes = (
"691 0 LINE",
"691 710 LINE",
"608 710 LINE",
"608 0 LINE"
);
},
{
closed = 1;
nodes = (
"162 0 LINE",
"162 710 LINE",
"79 710 LINE",
"79 0 LINE"
);
},
{
closed = 1;
nodes = (
"657 325 LINE",
"657 395 LINE",
"122 395 LINE",
"122 325 LINE"
);
}
);
width = 770;
},
{
background = {
anchors = (
{
name = bottom;
position = "{386, 0}";
},
{
name = center;
position = "{386, 362}";
},
{
name = top;
position = "{386, 712}";
},
{
name = topleft;
position = "{17, 712}";
}
);
paths = (
{
closed = 1;
nodes = (
"706 0 LINE",
"706 712 LINE",
"546 712 LINE",
"546 0 LINE"
);
},
{
closed = 1;
nodes = (
"225 0 LINE",
"225 712 LINE",
"66 712 LINE",
"66 0 LINE"
);
},
{
closed = 1;
nodes = (
"642 297 LINE",
"642 426 LINE",
"117 426 LINE",
"117 297 LINE"
);
}
);
};
layerId = "014D4A40-7C7F-4023-B30E-1F55CE5EA091";
paths = (
{
closed = 1;
nodes = (
"702 0 LINE",
"702 710 LINE",
"546 710 LINE",
"546 0 LINE"
);
},
{
closed = 1;
nodes = (
"225 0 LINE",
"225 710 LINE",
"69 710 LINE",
"69 0 LINE"
);
},
{
closed = 1;
nodes = (
"642 290 LINE",
"642 426 LINE",
"117 426 LINE",
"117 290 LINE"
);
}
);
width = 771;
}
);
rightMetricsKey = "=|";
unicode = 0048;
},
{
color = 3;
glyphname = I;
lastChange = "2019-02-12 20:35:57 +0000";
layers = (
{
layerId = "A3B50665-EA37-4AC6-885C-1233CA61B6BD";
paths = (
{
closed = 1;
nodes = (
"168 0 LINE",
"168 710 LINE",
"85 710 LINE",
"85 0 LINE"
);
}
);
width = 253;
},
{
layerId = "014D4A40-7C7F-4023-B30E-1F55CE5EA091";
paths = (
{
closed = 1;
nodes = (
"226 0 LINE",
"226 710 LINE",
"70 710 LINE",
"70 0 LINE"
);
}
);
width = 296;
}
);
rightMetricsKey = "=|";
unicode = 0049;
},
{
color = 3;
glyphname = K;
lastChange = "2019-02-19 16:31:15 +0000";
layers = (
{
background = {
anchors = (
{
name = bottom;
position = "{316, 0}";
},
{
name = top;
position = "{315, 712}";
}
);
paths = (
{
closed = 1;
nodes = (
"169 332 LINE",
"340 83 LINE SMOOTH",
"390 10 OFFCURVE",
"453 -10 OFFCURVE",
"533 -10 CURVE SMOOTH",
"590 -10 OFFCURVE",
"645 9 OFFCURVE",
"667 25 CURVE",
"630 143 LINE",
"607 132 OFFCURVE",
"583 124 OFFCURVE",
"557 124 CURVE SMOOTH",
"526 124 OFFCURVE",
"499 132 OFFCURVE",
"461 188 CURVE SMOOTH",
"302 421 LINE"
);
},
{
closed = 1;
nodes = (
"162 0 LINE",
"162 710 LINE",
"6 710 LINE",
"6 0 LINE"
);
},
{
closed = 1;
nodes = (
"131 183 LINE",
"264 326 LINE",
"634 712 LINE",
"440 712 LINE",
"133 385 LINE"
);
}
);
};
layerId = "A3B50665-EA37-4AC6-885C-1233CA61B6BD";
paths = (
{
closed = 1;
nodes = (
"592 712 LINE",
"487 712 LINE",
"143 367 LINE",
"143 263 LINE"
);
},
{
closed = 1;
nodes = (
"162 0 LINE",
"162 710 LINE",
"79 710 LINE",
"79 0 LINE"
);
},
{
closed = 1;
nodes = (
"581 -6 OFFCURVE",
"612 4 OFFCURVE",
"639 24 CURVE",
"617 84 LINE",
"593 71 OFFCURVE",
"575 65 OFFCURVE",
"554 65 CURVE SMOOTH",
"513 65 OFFCURVE",
"490 77 OFFCURVE",
"464 112 CURVE SMOOTH",
"244 412 LINE",
"188 353 LINE",
"405 63 LINE SMOOTH",
"441 14 OFFCURVE",
"482 -6 OFFCURVE",
"544 -6 CURVE SMOOTH"
);
}
);
width = 620;
},
{
background = {
paths = (
{
closed = 1;
nodes = (
"212 332 LINE",
"415 69 LINE SMOOTH",
"459 12 OFFCURVE",
"516 -10 OFFCURVE",
"596 -10 CURVE SMOOTH",
"657 -10 OFFCURVE",
"712 7 OFFCURVE",
"734 23 CURVE",
"697 139 LINE",
"674 128 OFFCURVE",
"650 122 OFFCURVE",
"624 122 CURVE SMOOTH",
"593 122 OFFCURVE",
"567 133 OFFCURVE",
"542 165 CURVE SMOOTH",
"341 421 LINE"
);
},
{
closed = 1;
nodes = (
"225 0 LINE",
"225 710 LINE",
"69 710 LINE",
"69 0 LINE"
);
},
{
closed = 1;
nodes = (
"194 187 LINE",
"697 712 LINE",
"507 712 LINE",
"196 385 LINE"
);
}
);
};
layerId = "014D4A40-7C7F-4023-B30E-1F55CE5EA091";
paths = (
{
closed = 1;
nodes = (
"695 710 LINE",
"496 710 LINE",
"195 402 LINE",
"194 200 LINE"
);
},
{
closed = 1;
nodes = (
"225 0 LINE",
"225 710 LINE",
"69 710 LINE",
"69 0 LINE"
);
},
{
closed = 1;
nodes = (
"653 -10 OFFCURVE",
"714 6 OFFCURVE",
"737 25 CURVE",
"700 143 LINE",
"677 130 OFFCURVE",
"653 124 OFFCURVE",
"628 124 CURVE SMOOTH",
"588 124 OFFCURVE",
"562 140 OFFCURVE",
"529 188 CURVE SMOOTH",
"357 437 LINE",
"232 332 LINE",
"407 83 LINE SMOOTH",
"451 18 OFFCURVE",
"511 -10 OFFCURVE",
"603 -10 CURVE SMOOTH"
);
}
);
width = 717;
}
);
leftMetricsKey = H;
unicode = 004B;
},
{
color = 3;
glyphname = L;
lastChange = "2019-02-19 16:31:20 +0000";
layers = (
{
background = {
anchors = (
{
name = bottom;
position = "{324, 0}";
},
{
name = center;
position = "{351, 357}";
},
{
name = top;
position = "{135, 712}";
},
{
name = topright;
position = "{253, 712}";
}
);
paths = (
{
closed = 1;
nodes = (
"534 0 LINE",
"534 48 LINE",
"162 48 LINE",
"162 712 LINE",
"108 712 LINE",
"108 0 LINE"
);
}
);
};
layerId = "A3B50665-EA37-4AC6-885C-1233CA61B6BD";
paths = (
{
closed = 1;
nodes = (
"494 0 LINE",
"504 72 LINE",
"162 72 LINE",
"162 712 LINE",
"79 712 LINE",
"79 0 LINE"
);
}
);
width = 504;
},
{
background = {
anchors = (
{
name = bottom;
position = "{309, 0}";
},
{
name = center;
position = "{391, 357}";
},
{
name = top;
position = "{143, 712}";
},
{
name = topright;
position = "{316, 712}";
}
);
paths = (
{
closed = 1;
nodes = (
"540 0 LINE",
"540 132 LINE",
"225 132 LINE",
"225 712 LINE",
"63 712 LINE",
"63 0 LINE"
);
}
);
};
layerId = "014D4A40-7C7F-4023-B30E-1F55CE5EA091";
paths = (
{
closed = 1;
nodes = (
"530 0 LINE",
"540 136 LINE",
"225 136 LINE",
"225 710 LINE",
"69 710 LINE",
"69 0 LINE"
);
}
);
width = 563;
}
);
leftMetricsKey = H;
unicode = 004C;
},
{
color = 3;
glyphname = M;
lastChange = "2019-02-19 16:31:58 +0000";
layers = (
{
background = {
paths = (
{
closed = 1;
nodes = (
"148 0 LINE",
"178 652 LINE",
"127 648 LINE",
"426 0 LINE",
"508 0 LINE",
"814 647 LINE",
"760 652 LINE",
"790 0 LINE",
"871 0 LINE",
"841 712 LINE",
"762 712 LINE",
"441 30 LINE",
"499 30 LINE",
"184 712 LINE",
"101 712 LINE",
"71 0 LINE"
);
}
);
};
layerId = "A3B50665-EA37-4AC6-885C-1233CA61B6BD";
paths = (
{
closed = 1;
nodes = (
"146 0 LINE",
"176 652 LINE",
"129 648 LINE",
"428 0 LINE",
"506 0 LINE",
"812 647 LINE",
"762 652 LINE",
"792 0 LINE",
"871 0 LINE",
"841 712 LINE",
"762 712 LINE",
"441 30 LINE",
"499 30 LINE",
"184 712 LINE",
"101 712 LINE",
"71 0 LINE"
);
}
);
width = 942;
},
{
background = {
anchors = (
{
name = bottom;
position = "{485, 0}";
},
{
name = top;
position = "{485, 712}";
}
);
paths = (
{
closed = 1;
nodes = (
"224 0 LINE",
"224 470 LINE",
"185 461 LINE",
"429 0 LINE",
"540 0 LINE",
"780 461 LINE",
"745 470 LINE",
"745 0 LINE",
"897 0 LINE",
"897 712 LINE",
"750 712 LINE",
"448 120 LINE",
"528 120 LINE",
"219 712 LINE",
"72 712 LINE",
"72 0 LINE"
);
}
);
};
guideLines = (
{
angle = -88.391;
position = "{735, 356}";
},
{
angle = 88.391;
position = "{234, 356}";
}
);
layerId = "014D4A40-7C7F-4023-B30E-1F55CE5EA091";
paths = (
{
closed = 1;
nodes = (
"219 0 LINE",
"232 470 LINE",
"193 461 LINE",
"425 0 LINE",
"536 0 LINE",
"762 461 LINE",
"730 470 LINE",
"743 0 LINE",
"897 0 LINE",
"877 712 LINE",
"744 712 LINE",
"447 102 LINE",
"535 102 LINE",
"226 712 LINE",
"92 712 LINE",
"72 0 LINE"
);
}
);
width = 970;
}
);
unicode = 004D;
},
{
color = 4;
glyphname = N;
lastChange = "2019-02-23 22:10:05 +0000";
layers = (
{
anchors = (
{
name = bottom;
position = "{356, 0}";
},
{
name = top;
position = "{356, 712}";
}
);
background = {
paths = (
{
closed = 1;
nodes = (
"157 626 LINE",
"122 621 LINE",
"614 0 LINE",
"681 0 LINE",
"681 710 LINE",
"603 710 LINE",
"603 83 LINE",
"638 89 LINE",
"152 710 LINE",
"79 710 LINE",
"79 0 LINE",
"157 0 LINE"
);
}
);
};
layerId = "A3B50665-EA37-4AC6-885C-1233CA61B6BD";
paths = (
{
closed = 1;
nodes = (
"603 84 LINE",
"638 89 LINE",
"146 710 LINE",
"79 710 LINE",
"79 0 LINE",
"157 0 LINE",
"157 627 LINE",
"122 621 LINE",
"614 0 LINE",
"681 0 LINE",
"681 710 LINE",
"603 710 LINE"
);
}
);
width = 760;
},
{
anchors = (
{
name = bottom;
position = "{378, 0}";
},
{
name = top;
position = "{377, 712}";
}
);
background = {
paths = (
{
closed = 1;
nodes = (
"542 169 LINE",
"598 212 LINE",
"205 710 LINE",
"69 710 LINE",
"69 0 LINE",
"219 0 LINE",
"219 541 LINE",
"163 498 LINE",
"556 0 LINE",
"692 0 LINE",
"692 710 LINE",
"542 710 LINE"
);
}
);
};
layerId = "014D4A40-7C7F-4023-B30E-1F55CE5EA091";
paths = (
{
closed = 1;
nodes = (
"542 143 LINE",
"598 186 LINE",
"205 710 LINE",
"69 710 LINE",
"69 0 LINE",
"219 0 LINE",
"219 567 LINE",
"163 524 LINE",
"556 0 LINE",
"692 0 LINE",
"692 710 LINE",
"542 710 LINE"
);
}
);
width = 761;
}
);
leftKerningGroup = H;
leftMetricsKey = H;
rightKerningGroup = H;
rightMetricsKey = H;
unicode = 004E;
},
{
color = 3;
glyphname = O;
lastChange = "2019-02-19 16:30:43 +0000";
layers = (
{
background = {
paths = (
{
closed = 1;
nodes = (
"628 -8 OFFCURVE",
"781 153 OFFCURVE",
"781 361 CURVE SMOOTH",
"781 569 OFFCURVE",
"633 720 OFFCURVE",
"427 720 CURVE SMOOTH",
"215 720 OFFCURVE",
"59 552 OFFCURVE",
"59 345 CURVE SMOOTH",
"59 141 OFFCURVE",
"208 -8 OFFCURVE",
"415 -8 CURVE SMOOTH"
);
},
{
closed = 1;
nodes = (
"253 67 OFFCURVE",
"141 187 OFFCURVE",
"141 346 CURVE SMOOTH",
"141 517 OFFCURVE",
"260 645 OFFCURVE",
"425 645 CURVE SMOOTH",
"586 645 OFFCURVE",
"699 519 OFFCURVE",
"699 358 CURVE SMOOTH",
"699 183 OFFCURVE",
"581 67 OFFCURVE",
"415 67 CURVE SMOOTH"
);
}
);
};
guideLines = (
{
angle = 90;
position = "{736, 356}";
},
{
angle = 90;
position = "{799, 356}";
}
);
layerId = "A3B50665-EA37-4AC6-885C-1233CA61B6BD";
paths = (
{
closed = 1;
nodes = (
"628 -8 OFFCURVE",
"781 153 OFFCURVE",
"781 361 CURVE SMOOTH",
"781 569 OFFCURVE",
"633 720 OFFCURVE",
"427 720 CURVE SMOOTH",
"215 720 OFFCURVE",
"59 552 OFFCURVE",
"59 345 CURVE SMOOTH",
"59 141 OFFCURVE",
"208 -8 OFFCURVE",
"415 -8 CURVE SMOOTH"
);
},
{
closed = 1;
nodes = (
"254 68 OFFCURVE",
"142 188 OFFCURVE",
"142 346 CURVE SMOOTH",
"142 516 OFFCURVE",
"261 644 OFFCURVE",
"425 644 CURVE SMOOTH",
"585 644 OFFCURVE",
"698 518 OFFCURVE",
"698 358 CURVE SMOOTH",
"698 184 OFFCURVE",
"580 68 OFFCURVE",
"415 68 CURVE SMOOTH"
);
}
);
width = 840;
},
{
background = {
paths = (
{
closed = 1;
nodes = (
"641 -10 OFFCURVE",
"781 174 OFFCURVE",
"781 362 CURVE SMOOTH",
"781 578 OFFCURVE",
"626 720 OFFCURVE",
"416 720 CURVE SMOOTH",
"180 720 OFFCURVE",
"39 534 OFFCURVE",
"39 346 CURVE SMOOTH",
"39 131 OFFCURVE",
"193 -10 OFFCURVE",
"404 -10 CURVE SMOOTH"
);
},
{
closed = 1;
nodes = (
"288 132 OFFCURVE",
"207 213 OFFCURVE",
"207 349 CURVE SMOOTH",
"207 481 OFFCURVE",
"288 580 OFFCURVE",
"414 580 CURVE SMOOTH",
"530 580 OFFCURVE",
"613 496 OFFCURVE",
"613 359 CURVE SMOOTH",
"613 224 OFFCURVE",
"537 132 OFFCURVE",
"406 132 CURVE SMOOTH"
);
}
);
};
layerId = "014D4A40-7C7F-4023-B30E-1F55CE5EA091";
paths = (
{
closed = 1;
nodes = (
"641 -10 OFFCURVE",
"781 174 OFFCURVE",
"781 362 CURVE SMOOTH",
"781 578 OFFCURVE",
"626 720 OFFCURVE",
"416 720 CURVE SMOOTH",
"180 720 OFFCURVE",
"39 534 OFFCURVE",
"39 346 CURVE SMOOTH",
"39 131 OFFCURVE",
"193 -10 OFFCURVE",
"404 -10 CURVE SMOOTH"
);
},
{
closed = 1;
nodes = (
"283 127 OFFCURVE",
"198 210 OFFCURVE",
"198 349 CURVE SMOOTH",
"198 483 OFFCURVE",
"283 585 OFFCURVE",
"414 585 CURVE SMOOTH",
"535 585 OFFCURVE",
"622 499 OFFCURVE",
"622 359 CURVE SMOOTH",
"622 221 OFFCURVE",
"542 127 OFFCURVE",
"406 127 CURVE SMOOTH"
);
}
);
width = 820;
}
);
rightMetricsKey = "=|";
unicode = 004F;
},
{
color = 4;
glyphname = a;
lastChange = "2019-02-28 10:04:01 +0000";
layers = (
{
background = {
paths = (
{
closed = 1;
nodes = (
"421 498 LINE",
"417 416 LINE",
"423 423 LINE",
"401 476 OFFCURVE",
"349 507 OFFCURVE",
"280 507 CURVE SMOOTH",
"141 507 OFFCURVE",
"45 392 OFFCURVE",
"45 225 CURVE SMOOTH",
"45 84 OFFCURVE",
"122 -8 OFFCURVE",
"241 -8 CURVE SMOOTH",
"336 -8 OFFCURVE",
"407 53 OFFCURVE",
"426 150 CURVE",
"416 154 LINE",
"416 0 LINE",
"492 0 LINE",
"492 498 LINE"
);
},
{
closed = 1;
nodes = (
"371 435 OFFCURVE",
"414 383 OFFCURVE",
"414 284 CURVE SMOOTH",
"414 158 OFFCURVE",
"345 64 OFFCURVE",
"255 64 CURVE SMOOTH",
"174 64 OFFCURVE",
"126 125 OFFCURVE",
"126 231 CURVE SMOOTH",
"126 354 OFFCURVE",
"190 435 OFFCURVE",
"289 435 CURVE SMOOTH"
);
}
);
};
hints = (
{
horizontal = 1;
place = "{-8, 75}";
type = Stem;
},
{
horizontal = 1;
place = "{432, 75}";
type = Stem;
},
{
horizontal = 1;
place = "{664, -20}";
target = down;
type = TopGhost;
},
{
place = "{64, 77}";
type = Stem;
},
{
place = "{404, 77}";
type = Stem;
},
{
horizontal = 1;
place = "{0, 21}";
target = up;
type = BottomGhost;
}
);
layerId = "A3B50665-EA37-4AC6-885C-1233CA61B6BD";
paths = (
{
closed = 1;
nodes = (
"428 498 LINE",
"420 416 LINE",
"427 421 LINE",
"409 472 OFFCURVE",
"351 507 OFFCURVE",
"283 507 CURVE SMOOTH",
"142 507 OFFCURVE",
"45 390 OFFCURVE",
"45 220 CURVE SMOOTH",
"45 81 OFFCURVE",
"122 -8 OFFCURVE",
"241 -8 CURVE SMOOTH",
"333 -8 OFFCURVE",
"406 56 OFFCURVE",
"435 160 CURVE",
"414 154 LINE",
"414 0 LINE",
"492 0 LINE",
"492 498 LINE"
);
},
{
closed = 1;
nodes = (
"368 435 OFFCURVE",
"415 379 OFFCURVE",
"415 284 CURVE SMOOTH",
"415 159 OFFCURVE",
"344 64 OFFCURVE",
"251 64 CURVE SMOOTH",
"173 64 OFFCURVE",
"126 124 OFFCURVE",
"126 226 CURVE SMOOTH",
"126 353 OFFCURVE",
"189 435 OFFCURVE",
"287 435 CURVE SMOOTH"
);
}
);
width = 560;
},
{
background = {
paths = (
{
closed = 1;
nodes = (
"444 506 LINE",
"426 422 LINE",
"440 442 LINE",
"420 485 OFFCURVE",
"359 516 OFFCURVE",
"288 516 CURVE SMOOTH",
"148 516 OFFCURVE",
"31 405 OFFCURVE",
"31 223 CURVE SMOOTH",
"31 81 OFFCURVE",
"114 -10 OFFCURVE",
"242 -10 CURVE SMOOTH",
"341 -10 OFFCURVE",
"417 49 OFFCURVE",
"449 155 CURVE",
"403 155 LINE",
"403 0 LINE",
"549 0 LINE",
"549 506 LINE"
);
},
{
closed = 1;
nodes = (
"368 388 OFFCURVE",
"403 347 OFFCURVE",
"403 278 CURVE SMOOTH",
"403 187 OFFCURVE",
"350 118 OFFCURVE",
"280 118 CURVE SMOOTH",
"221 118 OFFCURVE",
"186 162 OFFCURVE",
"186 236 CURVE SMOOTH",
"186 328 OFFCURVE",
"234 388 OFFCURVE",
"307 388 CURVE SMOOTH"
);
}
);
};
hints = (
{
horizontal = 1;
place = "{-8, 129}";
type = Stem;
},
{
horizontal = 1;
place = "{386, 129}";
type = Stem;
},
{
horizontal = 1;
place = "{672, -20}";
target = down;
type = TopGhost;
},
{
place = "{46, 134}";
type = Stem;
},
{
place = "{366, 134}";
type = Stem;
},
{
horizontal = 1;
place = "{0, 21}";
target = up;
type = BottomGhost;
},
{
place = "{385, 115}";
type = Stem;
}
);
layerId = "014D4A40-7C7F-4023-B30E-1F55CE5EA091";
paths = (
{
closed = 1;
nodes = (
"444 506 LINE",
"426 422 LINE",
"440 442 LINE",
"420 485 OFFCURVE",
"359 516 OFFCURVE",
"288 516 CURVE SMOOTH",
"148 516 OFFCURVE",
"31 405 OFFCURVE",
"31 223 CURVE SMOOTH",
"31 81 OFFCURVE",
"114 -10 OFFCURVE",
"242 -10 CURVE SMOOTH",
"341 -10 OFFCURVE",
"412 49 OFFCURVE",
"444 155 CURVE",
"403 155 LINE",
"403 0 LINE",
"549 0 LINE",
"549 506 LINE"
);
},
{
closed = 1;
nodes = (
"368 388 OFFCURVE",
"403 347 OFFCURVE",
"403 278 CURVE SMOOTH",
"403 187 OFFCURVE",
"350 118 OFFCURVE",
"280 118 CURVE SMOOTH",
"221 118 OFFCURVE",
"186 162 OFFCURVE",
"186 236 CURVE SMOOTH",
"186 328 OFFCURVE",
"234 388 OFFCURVE",
"307 388 CURVE SMOOTH"
);
}
);
width = 605;
}
);
leftKerningGroup = o;
leftMetricsKey = o;
note = d;
rightMetricsKey = "=|n";
unicode = 0061;
},
{
color = 4;
glyphname = b;
lastChange = "2019-02-24 20:45:59 +0000";
layers = (
{
background = {
paths = (
{
closed = 1;
nodes = (
"739 1 LINE",
"743 83 LINE",
"737 76 LINE",
"759 23 OFFCURVE",
"811 -8 OFFCURVE",
"880 -8 CURVE SMOOTH",
"1019 -8 OFFCURVE",
"1114 103 OFFCURVE",
"1114 274 CURVE SMOOTH",
"1114 415 OFFCURVE",
"1040 507 OFFCURVE",
"924 507 CURVE SMOOTH",
"826 507 OFFCURVE",
"751 446 OFFCURVE",
"731 349 CURVE",
"745 344 LINE",
"745 710 LINE",
"668 710 LINE",
"668 1 LINE"
);
},
{
closed = 1;
nodes = (
"789 64 OFFCURVE",
"746 116 OFFCURVE",
"746 215 CURVE SMOOTH",
"746 326 OFFCURVE",
"803 435 OFFCURVE",
"905 435 CURVE SMOOTH",
"986 435 OFFCURVE",
"1034 374 OFFCURVE",
"1034 268 CURVE SMOOTH",
"1034 143 OFFCURVE",
"970 64 OFFCURVE",
"873 64 CURVE SMOOTH"
);
},
{
closed = 1;
nodes = (
"132 1 LINE",
"140 83 LINE",
"133 78 LINE",
"151 27 OFFCURVE",
"209 -8 OFFCURVE",
"277 -8 CURVE SMOOTH",
"418 -8 OFFCURVE",
"515 109 OFFCURVE",
"515 279 CURVE SMOOTH",
"515 418 OFFCURVE",
"438 507 OFFCURVE",
"319 507 CURVE SMOOTH",
"227 507 OFFCURVE",
"154 446 OFFCURVE",
"125 345 CURVE",
"146 345 LINE",
"146 499 LINE",
"68 499 LINE",
"68 1 LINE"
);
},
{
closed = 1;
nodes = (
"192 64 OFFCURVE",
"145 120 OFFCURVE",
"145 215 CURVE SMOOTH",
"145 340 OFFCURVE",
"216 435 OFFCURVE",
"309 435 CURVE SMOOTH",
"387 435 OFFCURVE",
"434 375 OFFCURVE",
"434 273 CURVE SMOOTH",
"434 146 OFFCURVE",
"371 64 OFFCURVE",
"273 64 CURVE SMOOTH"
);
}
);
};
hints = (
{
horizontal = 1;
place = "{0, 21}";
target = up;
type = BottomGhost;
},
{
horizontal = 1;
place = "{432, 75}";
type = Stem;
},
{
horizontal = 1;
place = "{664, -20}";
target = down;
type = TopGhost;
},
{
place = "{72, 77}";
type = Stem;
},
{
place = "{412, 77}";
type = Stem;
},
{
horizontal = 1;
place = "{-8, 75}";
type = Stem;
}
);
layerId = "A3B50665-EA37-4AC6-885C-1233CA61B6BD";
paths = (
{
closed = 1;
nodes = (
"132 1 LINE",
"140 83 LINE",
"133 78 LINE",
"151 27 OFFCURVE",
"209 -8 OFFCURVE",
"277 -8 CURVE SMOOTH",
"418 -8 OFFCURVE",
"515 109 OFFCURVE",
"515 279 CURVE SMOOTH",
"515 418 OFFCURVE",
"438 507 OFFCURVE",
"319 507 CURVE SMOOTH",
"227 507 OFFCURVE",
"154 446 OFFCURVE",
"125 345 CURVE",
"146 344 LINE",
"146 710 LINE",
"68 710 LINE",
"68 1 LINE"
);
},
{
closed = 1;
nodes = (
"192 64 OFFCURVE",
"145 120 OFFCURVE",
"145 215 CURVE SMOOTH",
"145 340 OFFCURVE",
"216 435 OFFCURVE",
"309 435 CURVE SMOOTH",
"387 435 OFFCURVE",
"434 375 OFFCURVE",
"434 273 CURVE SMOOTH",
"434 146 OFFCURVE",
"371 64 OFFCURVE",
"273 64 CURVE SMOOTH"
);
}
);
width = 560;
},
{
background = {
paths = (
{
closed = 1;
nodes = (
"779 0 LINE",
"799 84 LINE",
"789 66 LINE",
"809 22 OFFCURVE",
"859 -10 OFFCURVE",
"940 -10 CURVE SMOOTH",
"1076 -10 OFFCURVE",
"1185 94 OFFCURVE",
"1185 267 CURVE SMOOTH",
"1185 417 OFFCURVE",
"1095 516 OFFCURVE",
"965 516 CURVE SMOOTH",
"877 516 OFFCURVE",
"800 462 OFFCURVE",
"776 382 CURVE",
"802 351 LINE",
"802 710 LINE",
"656 710 LINE",
"656 0 LINE"
);
},
{
closed = 1;
nodes = (
"841 117 OFFCURVE",
"802 156 OFFCURVE",
"802 238 CURVE SMOOTH",
"802 319 OFFCURVE",
"848 389 OFFCURVE",
"927 389 CURVE SMOOTH",
"992 389 OFFCURVE",
"1033 344 OFFCURVE",
"1033 267 CURVE SMOOTH",
"1033 178 OFFCURVE",
"986 117 OFFCURVE",
"910 117 CURVE SMOOTH"
);
},
{
closed = 1;
nodes = (
"161 0 LINE",
"179 84 LINE",
"165 64 LINE",
"185 21 OFFCURVE",
"246 -10 OFFCURVE",
"317 -10 CURVE SMOOTH",
"457 -10 OFFCURVE",
"574 101 OFFCURVE",
"574 283 CURVE SMOOTH",
"574 425 OFFCURVE",
"491 516 OFFCURVE",
"363 516 CURVE SMOOTH",
"264 516 OFFCURVE",
"188 457 OFFCURVE",
"156 351 CURVE",
"202 351 LINE",
"202 506 LINE",
"56 506 LINE",
"56 0 LINE"
);
},
{
closed = 1;
nodes = (
"237 118 OFFCURVE",
"202 159 OFFCURVE",
"202 228 CURVE SMOOTH",
"202 319 OFFCURVE",
"255 388 OFFCURVE",
"325 388 CURVE SMOOTH",
"384 388 OFFCURVE",
"419 344 OFFCURVE",
"419 270 CURVE SMOOTH",
"419 178 OFFCURVE",
"371 118 OFFCURVE",
"298 118 CURVE SMOOTH"
);
}
);
};
hints = (
{
horizontal = 1;
place = "{-8, 129}";
type = Stem;
},
{
horizontal = 1;
place = "{386, 129}";
type = Stem;
},
{
horizontal = 1;
place = "{672, -20}";
target = down;
type = TopGhost;
},
{
place = "{54, 134}";
type = Stem;
},
{
place = "{374, 134}";
type = Stem;
},
{
horizontal = 1;
place = "{0, 21}";
target = up;
type = BottomGhost;
},
{
place = "{54, 115}";
type = Stem;
}
);
layerId = "014D4A40-7C7F-4023-B30E-1F55CE5EA091";
paths = (
{
closed = 1;
nodes = (
"161 0 LINE",
"179 84 LINE",
"165 64 LINE",
"185 21 OFFCURVE",
"246 -10 OFFCURVE",
"317 -10 CURVE SMOOTH",
"457 -10 OFFCURVE",
"574 101 OFFCURVE",
"574 283 CURVE SMOOTH",
"574 425 OFFCURVE",
"491 516 OFFCURVE",
"363 516 CURVE SMOOTH",
"264 516 OFFCURVE",
"188 457 OFFCURVE",
"156 351 CURVE",
"202 351 LINE",
"202 710 LINE",
"56 710 LINE",
"56 0 LINE"
);
},
{
closed = 1;
nodes = (
"237 118 OFFCURVE",
"202 159 OFFCURVE",
"202 228 CURVE SMOOTH",
"202 319 OFFCURVE",
"255 388 OFFCURVE",
"325 388 CURVE SMOOTH",
"384 388 OFFCURVE",
"419 344 OFFCURVE",
"419 270 CURVE SMOOTH",
"419 178 OFFCURVE",
"371 118 OFFCURVE",
"298 118 CURVE SMOOTH"
);
}
);
width = 605;
}
);
leftMetricsKey = h;
note = b;
rightKerningGroup = o;
rightMetricsKey = o;
unicode = 0062;
},
{
color = 4;
glyphname = c;
lastChange = "2019-02-24 20:18:10 +0000";
layers = (
{
background = {
paths = (
{
closed = 1;
nodes = (
"1459 -8 OFFCURVE",
"1519 19 OFFCURVE",
"1544 46 CURVE",
"1516 108 LINE",
"1477 80 OFFCURVE",
"1435 64 OFFCURVE",
"1388 64 CURVE SMOOTH",
"1285 64 OFFCURVE",
"1228 126 OFFCURVE",
"1228 239 CURVE SMOOTH",
"1228 355 OFFCURVE",
"1294 435 OFFCURVE",
"1394 435 CURVE SMOOTH",
"1441 435 OFFCURVE",
"1482 421 OFFCURVE",
"1515 394 CURVE",
"1549 458 LINE",
"1515 492 OFFCURVE",
"1455 507 OFFCURVE",
"1401 507 CURVE SMOOTH",
"1249 507 OFFCURVE",
"1145 395 OFFCURVE",
"1145 233 CURVE SMOOTH",
"1145 84 OFFCURVE",
"1235 -8 OFFCURVE",
"1385 -8 CURVE SMOOTH"
);
},
{
closed = 1;
nodes = (
"1028 498 LINE",
"1020 416 LINE",
"1027 421 LINE",
"1009 472 OFFCURVE",
"951 507 OFFCURVE",
"883 507 CURVE SMOOTH",
"742 507 OFFCURVE",
"645 390 OFFCURVE",
"645 220 CURVE SMOOTH",
"645 81 OFFCURVE",
"722 -8 OFFCURVE",
"841 -8 CURVE SMOOTH",
"933 -8 OFFCURVE",
"1006 53 OFFCURVE",
"1035 154 CURVE",
"1014 154 LINE",
"1014 0 LINE",
"1092 0 LINE",
"1092 498 LINE"
);
},
{
closed = 1;
nodes = (
"968 435 OFFCURVE",
"1015 379 OFFCURVE",
"1015 284 CURVE SMOOTH",
"1015 159 OFFCURVE",
"944 64 OFFCURVE",
"851 64 CURVE SMOOTH",
"773 64 OFFCURVE",
"726 124 OFFCURVE",
"726 226 CURVE SMOOTH",
"726 353 OFFCURVE",
"789 435 OFFCURVE",
"887 435 CURVE SMOOTH"
);
},
{
closed = 1;
nodes = (
"142 507 OFFCURVE",
"45 392 OFFCURVE",
"45 240 CURVE SMOOTH",
"45 87 OFFCURVE",
"134 -8 OFFCURVE",
"280 -8 CURVE SMOOTH",
"428 -8 OFFCURVE",
"526 107 OFFCURVE",
"526 259 CURVE SMOOTH",
"526 412 OFFCURVE",
"437 507 OFFCURVE",
"294 507 CURVE SMOOTH"
);
},
{
closed = 1;
nodes = (
"182 63 OFFCURVE",
"124 126 OFFCURVE",
"124 240 CURVE SMOOTH",
"124 356 OFFCURVE",
"191 436 OFFCURVE",
"295 436 CURVE SMOOTH",
"389 436 OFFCURVE",
"447 373 OFFCURVE",
"447 259 CURVE SMOOTH",
"447 143 OFFCURVE",
"380 63 OFFCURVE",
"280 63 CURVE SMOOTH"
);
}
);
};
guideLines = (
{
angle = 90;
position = "{429, 142}";
}
);
layerId = "A3B50665-EA37-4AC6-885C-1233CA61B6BD";
paths = (
{
closed = 1;
nodes = (
"348 -8 OFFCURVE",
"412 14 OFFCURVE",
"444 46 CURVE",
"416 108 LINE",
"377 80 OFFCURVE",
"335 64 OFFCURVE",
"288 64 CURVE SMOOTH",
"185 64 OFFCURVE",
"126 126 OFFCURVE",
"126 240 CURVE SMOOTH",
"126 355 OFFCURVE",
"194 435 OFFCURVE",
"294 435 CURVE SMOOTH",
"341 435 OFFCURVE",
"382 421 OFFCURVE",
"415 394 CURVE",
"449 458 LINE",
"415 492 OFFCURVE",
"355 507 OFFCURVE",
"301 507 CURVE SMOOTH",
"142 507 OFFCURVE",
"45 392 OFFCURVE",
"45 240 CURVE SMOOTH",
"45 87 OFFCURVE",
"134 -8 OFFCURVE",
"285 -8 CURVE SMOOTH"
);
}
);
width = 461;
},
{
background = {
paths = (
{
closed = 1;
nodes = (
"1054 -10 OFFCURVE",
"1126 9 OFFCURVE",
"1176 48 CURVE",
"1123 163 LINE",
"1081 134 OFFCURVE",
"1041 121 OFFCURVE",
"994 121 CURVE SMOOTH",
"925 121 OFFCURVE",
"883 172 OFFCURVE",
"883 244 CURVE SMOOTH",
"883 335 OFFCURVE",
"939 386 OFFCURVE",
"1015 386 CURVE SMOOTH",
"1052 386 OFFCURVE",
"1086 375 OFFCURVE",
"1119 346 CURVE",
"1181 460 LINE",
"1148 492 OFFCURVE",
"1088 516 OFFCURVE",
"1014 516 CURVE SMOOTH",
"841 516 OFFCURVE",
"731 394 OFFCURVE",
"731 238 CURVE SMOOTH",
"731 94 OFFCURVE",
"820 -10 OFFCURVE",
"994 -10 CURVE SMOOTH"
);
},
{
closed = 1;
nodes = (
"369 -10 OFFCURVE",
"440 12 OFFCURVE",
"475 45 CURVE",
"420 148 LINE",
"389 129 OFFCURVE",
"354 117 OFFCURVE",
"317 117 CURVE SMOOTH",
"234 117 OFFCURVE",
"186 162 OFFCURVE",
"186 244 CURVE SMOOTH",
"186 328 OFFCURVE",
"241 386 OFFCURVE",
"321 386 CURVE SMOOTH",
"360 386 OFFCURVE",
"392 376 OFFCURVE",
"419 356 CURVE",
"481 466 LINE",
"443 500 OFFCURVE",
"376 516 OFFCURVE",
"316 516 CURVE SMOOTH",
"139 516 OFFCURVE",
"31 398 OFFCURVE",
"31 243 CURVE SMOOTH",
"31 87 OFFCURVE",
"130 -10 OFFCURVE",
"298 -10 CURVE SMOOTH"
);
}
);
};
layerId = "014D4A40-7C7F-4023-B30E-1F55CE5EA091";
paths = (
{
closed = 1;
nodes = (
"369 -10 OFFCURVE",
"440 12 OFFCURVE",
"476 47 CURVE",
"423 159 LINE",
"386 130 OFFCURVE",
"345 117 OFFCURVE",
"309 117 CURVE SMOOTH",
"234 117 OFFCURVE",
"186 162 OFFCURVE",
"186 244 CURVE SMOOTH",
"186 328 OFFCURVE",
"241 386 OFFCURVE",
"316 386 CURVE SMOOTH",
"356 386 OFFCURVE",
"386 375 OFFCURVE",
"419 346 CURVE",
"481 466 LINE",
"443 500 OFFCURVE",
"376 516 OFFCURVE",
"314 516 CURVE SMOOTH",
"139 516 OFFCURVE",
"31 398 OFFCURVE",
"31 243 CURVE SMOOTH",
"31 87 OFFCURVE",
"130 -10 OFFCURVE",
"298 -10 CURVE SMOOTH"
);
}
);
width = 486;
}
);
leftKerningGroup = o;
leftMetricsKey = o;
unicode = 0063;
},
{
color = 4;
glyphname = d;
lastChange = "2019-02-24 19:33:45 +0000";
layers = (
{
background = {
paths = (
{
closed = 1;
nodes = (
"415 710 LINE",
"415 416 LINE",
"427 421 LINE",
"409 472 OFFCURVE",
"351 507 OFFCURVE",
"283 507 CURVE SMOOTH",
"142 507 OFFCURVE",
"45 390 OFFCURVE",
"45 220 CURVE SMOOTH",
"45 81 OFFCURVE",
"122 -8 OFFCURVE",
"241 -8 CURVE SMOOTH",
"333 -8 OFFCURVE",
"406 53 OFFCURVE",
"435 154 CURVE",
"414 154 LINE",
"414 0 LINE",
"492 0 LINE",
"492 710 LINE"
);
},
{
closed = 1;
nodes = (
"368 435 OFFCURVE",
"415 379 OFFCURVE",
"415 284 CURVE SMOOTH",
"415 159 OFFCURVE",
"344 64 OFFCURVE",
"251 64 CURVE SMOOTH",
"173 64 OFFCURVE",
"126 124 OFFCURVE",
"126 226 CURVE SMOOTH",
"126 353 OFFCURVE",
"189 435 OFFCURVE",
"287 435 CURVE SMOOTH"
);
}
);
};
hints = (
{
horizontal = 1;
place = "{-8, 75}";
type = Stem;
},
{
horizontal = 1;
place = "{432, 75}";
type = Stem;
},
{
horizontal = 1;
place = "{664, -20}";
target = down;
type = TopGhost;
},
{
place = "{64, 77}";
type = Stem;
},
{
place = "{404, 77}";
type = Stem;
},
{
horizontal = 1;
place = "{0, 21}";
target = up;
type = BottomGhost;
}
);
layerId = "A3B50665-EA37-4AC6-885C-1233CA61B6BD";
paths = (
{
closed = 1;
nodes = (
"415 710 LINE",
"415 416 LINE",
"427 411 LINE",
"409 472 OFFCURVE",
"351 507 OFFCURVE",
"283 507 CURVE SMOOTH",
"142 507 OFFCURVE",
"45 390 OFFCURVE",
"45 220 CURVE SMOOTH",
"45 81 OFFCURVE",
"122 -8 OFFCURVE",
"241 -8 CURVE SMOOTH",
"333 -8 OFFCURVE",
"406 53 OFFCURVE",
"435 154 CURVE",
"414 154 LINE",
"414 0 LINE",
"492 0 LINE",
"492 710 LINE"
);
},
{
closed = 1;
nodes = (
"368 435 OFFCURVE",
"415 379 OFFCURVE",
"415 284 CURVE SMOOTH",
"415 159 OFFCURVE",
"344 64 OFFCURVE",
"251 64 CURVE SMOOTH",
"173 64 OFFCURVE",
"126 124 OFFCURVE",
"126 226 CURVE SMOOTH",
"126 353 OFFCURVE",
"189 435 OFFCURVE",
"287 435 CURVE SMOOTH"
);
}
);
width = 560;
},
{
background = {
paths = (
{
closed = 1;
nodes = (
"444 506 LINE",
"426 422 LINE",
"440 442 LINE",
"420 485 OFFCURVE",
"359 516 OFFCURVE",
"288 516 CURVE SMOOTH",
"148 516 OFFCURVE",
"31 405 OFFCURVE",
"31 223 CURVE SMOOTH",
"31 81 OFFCURVE",
"114 -10 OFFCURVE",
"242 -10 CURVE SMOOTH",
"341 -10 OFFCURVE",
"417 49 OFFCURVE",
"449 155 CURVE",
"403 155 LINE",
"403 0 LINE",
"549 0 LINE",
"549 506 LINE"
);
},
{
closed = 1;
nodes = (
"368 388 OFFCURVE",
"403 347 OFFCURVE",
"403 278 CURVE SMOOTH",
"403 187 OFFCURVE",
"350 118 OFFCURVE",
"280 118 CURVE SMOOTH",
"221 118 OFFCURVE",
"186 162 OFFCURVE",
"186 236 CURVE SMOOTH",
"186 328 OFFCURVE",
"234 388 OFFCURVE",
"307 388 CURVE SMOOTH"
);
}
);
};
hints = (
{
horizontal = 1;
place = "{-8, 129}";
type = Stem;
},
{
horizontal = 1;
place = "{386, 129}";
type = Stem;
},
{
horizontal = 1;
place = "{672, -20}";
target = down;
type = TopGhost;
},
{
place = "{46, 134}";
type = Stem;
},
{
place = "{366, 134}";
type = Stem;
},
{
horizontal = 1;
place = "{0, 21}";
target = up;
type = BottomGhost;
},
{
place = "{385, 115}";
type = Stem;
}
);
layerId = "014D4A40-7C7F-4023-B30E-1F55CE5EA091";
paths = (
{
closed = 1;
nodes = (
"403 710 LINE",
"403 422 LINE",
"440 422 LINE",
"420 485 OFFCURVE",
"359 516 OFFCURVE",
"288 516 CURVE SMOOTH",
"148 516 OFFCURVE",
"31 405 OFFCURVE",
"31 223 CURVE SMOOTH",
"31 81 OFFCURVE",
"114 -10 OFFCURVE",
"242 -10 CURVE SMOOTH",
"341 -10 OFFCURVE",
"416 49 OFFCURVE",
"448 155 CURVE",
"403 155 LINE",
"403 0 LINE",
"549 0 LINE",
"549 710 LINE"
);
},
{
closed = 1;
nodes = (
"368 388 OFFCURVE",
"403 347 OFFCURVE",
"403 278 CURVE SMOOTH",
"403 187 OFFCURVE",
"350 118 OFFCURVE",
"280 118 CURVE SMOOTH",
"221 118 OFFCURVE",
"186 162 OFFCURVE",
"186 236 CURVE SMOOTH",
"186 328 OFFCURVE",
"234 388 OFFCURVE",
"307 388 CURVE SMOOTH"
);
}
);
width = 605;
}
);
leftKerningGroup = o;
leftMetricsKey = o;
note = d;
rightMetricsKey = "=|h";
unicode = 0064;
},
{
color = 4;
glyphname = e;
lastChange = "2019-02-24 20:22:27 +0000";
layers = (
{
background = {
paths = (
{
closed = 1;
nodes = (
"959 -8 OFFCURVE",
"1031 17 OFFCURVE",
"1057 42 CURVE",
"1029 104 LINE",
"988 78 OFFCURVE",
"944 63 OFFCURVE",
"890 63 CURVE SMOOTH",
"795 63 OFFCURVE",
"725 117 OFFCURVE",
"725 231 CURVE SMOOTH",
"725 246 LINE SMOOTH",
"725 374 OFFCURVE",
"802 440 OFFCURVE",
"881 440 CURVE SMOOTH",
"965 440 OFFCURVE",
"1017 378 OFFCURVE",
"1013 270 CURVE",
"1023 284 LINE",
"710 284 LINE",
"710 220 LINE",
"1085 220 LINE",
"1099 393 OFFCURVE",
"1022 507 OFFCURVE",
"884 507 CURVE SMOOTH",
"742 507 OFFCURVE",
"645 390 OFFCURVE",
"645 236 CURVE SMOOTH",
"645 78 OFFCURVE",
"746 -8 OFFCURVE",
"886 -8 CURVE SMOOTH"
);
},
{
closed = 1;
nodes = (
"138 507 OFFCURVE",
"45 392 OFFCURVE",
"45 240 CURVE SMOOTH",
"45 87 OFFCURVE",
"130 -8 OFFCURVE",
"270 -8 CURVE SMOOTH",
"412 -8 OFFCURVE",
"506 107 OFFCURVE",
"506 259 CURVE SMOOTH",
"506 412 OFFCURVE",
"421 507 OFFCURVE",
"284 507 CURVE SMOOTH"
);
},
{
closed = 1;
nodes = (
"178 63 OFFCURVE",
"124 126 OFFCURVE",
"124 240 CURVE SMOOTH",
"124 356 OFFCURVE",
"187 436 OFFCURVE",
"284 436 CURVE SMOOTH",
"373 436 OFFCURVE",
"427 373 OFFCURVE",
"427 259 CURVE SMOOTH",
"427 143 OFFCURVE",
"364 63 OFFCURVE",
"270 63 CURVE SMOOTH"
);
}
);
};
hints = (
{
horizontal = 1;
place = "{-8, 75}";
type = Stem;
},
{
horizontal = 1;
place = "{433, 74}";
type = Stem;
},
{
place = "{64, 76}";
type = Stem;
},
{
place = "{389, 80}";
type = Stem;
}
);
layerId = "A3B50665-EA37-4AC6-885C-1233CA61B6BD";
paths = (
{
closed = 1;
nodes = (
"359 -8 OFFCURVE",
"431 17 OFFCURVE",
"457 42 CURVE",
"429 101 LINE",
"388 75 OFFCURVE",
"344 63 OFFCURVE",
"290 63 CURVE SMOOTH",
"195 63 OFFCURVE",
"123 115 OFFCURVE",
"123 231 CURVE SMOOTH",
"123 246 LINE SMOOTH",
"123 361 OFFCURVE",
"186 440 OFFCURVE",
"281 440 CURVE SMOOTH",
"367 440 OFFCURVE",
"419 378 OFFCURVE",
"411 270 CURVE",
"434 284 LINE",
"90 284 LINE",
"90 220 LINE",
"485 220 LINE",
"499 393 OFFCURVE",
"426 507 OFFCURVE",
"284 507 CURVE SMOOTH",
"141 507 OFFCURVE",
"45 392 OFFCURVE",
"45 238 CURVE SMOOTH",
"45 78 OFFCURVE",
"141 -8 OFFCURVE",
"286 -8 CURVE SMOOTH"
);
}
);
width = 530;
},
{
background = {
paths = (
{
closed = 1;
nodes = (
"1079 -10 OFFCURVE",
"1151 8 OFFCURVE",
"1200 40 CURVE",
"1150 152 LINE",
"1108 131 OFFCURVE",
"1061 119 OFFCURVE",
"1024 119 CURVE SMOOTH",
"928 119 OFFCURVE",
"877 164 OFFCURVE",
"877 245 CURVE SMOOTH",
"877 258 LINE SMOOTH",
"877 348 OFFCURVE",
"917 404 OFFCURVE",
"993 404 CURVE SMOOTH",
"1054 404 OFFCURVE",
"1092 364 OFFCURVE",
"1088 298 CURVE",
"1128 310 LINE",
"841 310 LINE",
"841 207 LINE",
"1222 207 LINE",
"1242 402 OFFCURVE",
"1147 516 OFFCURVE",
"996 516 CURVE SMOOTH",
"840 516 OFFCURVE",
"731 397 OFFCURVE",
"731 239 CURVE SMOOTH",
"731 79 OFFCURVE",
"839 -10 OFFCURVE",
"1008 -10 CURVE SMOOTH"
);
},
{
closed = 1;
nodes = (
"137 516 OFFCURVE",
"31 399 OFFCURVE",
"31 241 CURVE SMOOTH",
"31 87 OFFCURVE",
"127 -10 OFFCURVE",
"284 -10 CURVE SMOOTH",
"448 -10 OFFCURVE",
"554 107 OFFCURVE",
"554 265 CURVE SMOOTH",
"554 419 OFFCURVE",
"458 516 OFFCURVE",
"301 516 CURVE SMOOTH"
);
},
{
closed = 1;
nodes = (
"219 117 OFFCURVE",
"181 162 OFFCURVE",
"181 241 CURVE SMOOTH",
"181 328 OFFCURVE",
"220 389 OFFCURVE",
"297 389 CURVE SMOOTH",
"366 389 OFFCURVE",
"404 344 OFFCURVE",
"404 265 CURVE SMOOTH",
"404 178 OFFCURVE",
"365 117 OFFCURVE",
"288 117 CURVE SMOOTH"
);
}
);
};
hints = (
{
horizontal = 1;
place = "{-8, 129}";
type = Stem;
},
{
horizontal = 1;
place = "{391, 123}";
type = Stem;
},
{
place = "{46, 133}";
type = Stem;
},
{
place = "{345, 141}";
type = Stem;
}
);
layerId = "014D4A40-7C7F-4023-B30E-1F55CE5EA091";
paths = (
{
closed = 1;
nodes = (
"379 -10 OFFCURVE",
"450 8 OFFCURVE",
"498 40 CURVE",
"450 146 LINE",
"408 125 OFFCURVE",
"361 113 OFFCURVE",
"324 113 CURVE SMOOTH",
"228 113 OFFCURVE",
"177 160 OFFCURVE",
"177 245 CURVE SMOOTH",
"177 258 LINE SMOOTH",
"177 348 OFFCURVE",
"217 404 OFFCURVE",
"293 404 CURVE SMOOTH",
"354 404 OFFCURVE",
"392 364 OFFCURVE",
"388 298 CURVE",
"408 310 LINE",
"141 310 LINE",
"141 207 LINE",
"522 207 LINE",
"542 402 OFFCURVE",
"447 516 OFFCURVE",
"299 516 CURVE SMOOTH",
"142 516 OFFCURVE",
"31 399 OFFCURVE",
"31 241 CURVE SMOOTH",
"31 81 OFFCURVE",
"139 -10 OFFCURVE",
"308 -10 CURVE SMOOTH"
);
}
);
width = 555;
}
);
leftKerningGroup = o;
leftMetricsKey = o;
note = e;
unicode = 0065;
},
{
color = 3;
glyphname = f;
lastChange = "2019-02-23 22:40:44 +0000";
layers = (
{
background = {
paths = (
{
closed = 1;
nodes = (
"170 0 LINE",
"170 491 LINE SMOOTH",
"170 589 OFFCURVE",
"222 652 OFFCURVE",
"320 652 CURVE SMOOTH",
"354 652 OFFCURVE",
"387 645 OFFCURVE",
"413 634 CURVE",
"434 697 LINE",
"406 711 OFFCURVE",
"365 720 OFFCURVE",
"318 720 CURVE SMOOTH",
"179 720 OFFCURVE",
"94 621 OFFCURVE",
"94 499 CURVE SMOOTH",
"93 0 LINE"
);
},
{
closed = 1;
nodes = (
"338 432 LINE",
"338 498 LINE",
"-6 498 LINE",
"-6 432 LINE"
);
}
);
};
layerId = "A3B50665-EA37-4AC6-885C-1233CA61B6BD";
paths = (
{
closed = 1;
nodes = (
"170 0 LINE",
"170 491 LINE SMOOTH",
"170 589 OFFCURVE",
"222 652 OFFCURVE",
"320 652 CURVE SMOOTH",
"354 652 OFFCURVE",
"387 645 OFFCURVE",
"413 634 CURVE",
"434 697 LINE",
"406 711 OFFCURVE",
"365 720 OFFCURVE",
"318 720 CURVE SMOOTH",
"179 720 OFFCURVE",
"94 621 OFFCURVE",
"94 499 CURVE SMOOTH",
"93 0 LINE"
);
},
{
closed = 1;
nodes = (
"338 432 LINE",
"338 498 LINE",
"-6 498 LINE",
"-6 432 LINE"
);
}
);
width = 328;
},
{
background = {
paths = (
{
closed = 1;
nodes = (
"226 0 LINE",
"226 504 LINE SMOOTH",
"226 568 OFFCURVE",
"265 610 OFFCURVE",
"351 610 CURVE SMOOTH",
"374 610 OFFCURVE",
"410 604 OFFCURVE",
"435 593 CURVE",
"480 703 LINE",
"448 719 OFFCURVE",
"399 730 OFFCURVE",
"341 730 CURVE SMOOTH",
"181 730 OFFCURVE",
"80 630 OFFCURVE",
"80 493 CURVE SMOOTH",
"80 0 LINE"
);
},
{
closed = 1;
nodes = (
"364 385 LINE",
"364 508 LINE",
"-15 508 LINE",
"-15 385 LINE"
);
}
);
};
layerId = "014D4A40-7C7F-4023-B30E-1F55CE5EA091";
paths = (
{
closed = 1;
nodes = (
"226 0 LINE",
"226 504 LINE SMOOTH",
"226 568 OFFCURVE",
"265 610 OFFCURVE",
"351 610 CURVE SMOOTH",
"374 610 OFFCURVE",
"410 604 OFFCURVE",
"435 593 CURVE",
"480 703 LINE",
"448 719 OFFCURVE",
"399 730 OFFCURVE",
"341 730 CURVE SMOOTH",
"181 730 OFFCURVE",
"80 630 OFFCURVE",
"80 493 CURVE SMOOTH",
"80 0 LINE"
);
},
{
closed = 1;
nodes = (
"364 385 LINE",
"364 508 LINE",
"-15 508 LINE",
"-15 385 LINE"
);
}
);
width = 361;
}
);
unicode = 0066;
},
{
color = 4;
glyphname = g;
lastChange = "2019-02-24 22:39:58 +0000";
layers = (
{
background = {
paths = (
{
closed = 1;
nodes = (
"1011 -200 OFFCURVE",
"1100 -107 OFFCURVE",
"1100 74 CURVE SMOOTH",
"1100 498 LINE",
"1029 498 LINE",
"1025 416 LINE",
"1031 425 LINE",
"1009 477 OFFCURVE",
"956 507 OFFCURVE",
"886 507 CURVE SMOOTH",
"746 507 OFFCURVE",
"649 394 OFFCURVE",
"649 231 CURVE SMOOTH",
"649 93 OFFCURVE",
"727 2 OFFCURVE",
"847 2 CURVE SMOOTH",
"943 2 OFFCURVE",
"1015 63 OFFCURVE",
"1034 158 CURVE",
"1023 154 LINE",
"1023 84 LINE SMOOTH",
"1023 -69 OFFCURVE",
"969 -129 OFFCURVE",
"835 -129 CURVE SMOOTH",
"784 -129 OFFCURVE",
"731 -117 OFFCURVE",
"685 -96 CURVE",
"665 -166 LINE",
"713 -189 OFFCURVE",
"778 -200 OFFCURVE",
"833 -200 CURVE SMOOTH"
);
},
{
closed = 1;
nodes = (
"778 74 OFFCURVE",
"730 133 OFFCURVE",
"730 236 CURVE SMOOTH",
"730 356 OFFCURVE",
"795 435 OFFCURVE",
"895 435 CURVE SMOOTH",
"978 435 OFFCURVE",
"1022 384 OFFCURVE",
"1022 288 CURVE SMOOTH",
"1022 166 OFFCURVE",
"953 74 OFFCURVE",
"861 74 CURVE SMOOTH"
);
},
{
closed = 1;
nodes = (
"432 498 LINE",
"424 416 LINE",
"434 423 LINE",
"416 473 OFFCURVE",
"357 507 OFFCURVE",
"289 507 CURVE SMOOTH",
"147 507 OFFCURVE",
"49 392 OFFCURVE",
"49 226 CURVE SMOOTH",
"49 89 OFFCURVE",
"127 2 OFFCURVE",
"246 2 CURVE SMOOTH",
"339 2 OFFCURVE",
"413 62 OFFCURVE",
"442 161 CURVE",
"418 154 LINE",
"418 0 LINE",
"496 0 LINE",
"496 498 LINE"
);
},
{
closed = 1;
nodes = (
"375 435 OFFCURVE",
"422 381 OFFCURVE",
"422 288 CURVE SMOOTH",
"422 166 OFFCURVE",
"351 74 OFFCURVE",
"256 74 CURVE SMOOTH",
"178 74 OFFCURVE",
"130 132 OFFCURVE",
"130 232 CURVE SMOOTH",
"130 355 OFFCURVE",
"194 435 OFFCURVE",
"293 435 CURVE SMOOTH"
);
}
);
};
hints = (
{
horizontal = 1;
place = "{-173, 75}";
type = Stem;
},
{
horizontal = 1;
place = "{21, 75}";
type = Stem;
},
{
horizontal = 1;
place = "{432, 75}";
type = Stem;
},
{
place = "{64, 77}";
type = Stem;
},
{
place = "{405, 77}";
type = Stem;
},
{
horizontal = 1;
place = "{498, -20}";
target = down;
type = TopGhost;
}
);
layerId = "A3B50665-EA37-4AC6-885C-1233CA61B6BD";
paths = (
{
closed = 1;
nodes = (
"407 -200 OFFCURVE",
"496 -107 OFFCURVE",
"496 74 CURVE SMOOTH",
"496 498 LINE",
"432 498 LINE",
"424 416 LINE",
"430 423 LINE",
"412 473 OFFCURVE",
"353 507 OFFCURVE",
"285 507 CURVE SMOOTH",
"143 507 OFFCURVE",
"45 392 OFFCURVE",
"45 226 CURVE SMOOTH",
"45 89 OFFCURVE",
"123 2 OFFCURVE",
"242 2 CURVE SMOOTH",
"335 2 OFFCURVE",
"409 62 OFFCURVE",
"438 161 CURVE",
"419 154 LINE",
"419 84 LINE SMOOTH",
"419 -69 OFFCURVE",
"365 -129 OFFCURVE",
"231 -129 CURVE SMOOTH",
"180 -129 OFFCURVE",
"127 -117 OFFCURVE",
"81 -96 CURVE",
"61 -166 LINE",
"109 -189 OFFCURVE",
"174 -200 OFFCURVE",
"229 -200 CURVE SMOOTH"
);
},
{
closed = 1;
nodes = (
"174 74 OFFCURVE",
"126 132 OFFCURVE",
"126 232 CURVE SMOOTH",
"126 355 OFFCURVE",
"190 435 OFFCURVE",
"289 435 CURVE SMOOTH",
"371 435 OFFCURVE",
"418 381 OFFCURVE",
"418 288 CURVE SMOOTH",
"418 166 OFFCURVE",
"347 74 OFFCURVE",
"252 74 CURVE SMOOTH"
);
}
);
width = 564;
},
{
background = {
paths = (
{
closed = 1;
nodes = (
"1232 -200 OFFCURVE",
"1355 -104 OFFCURVE",
"1355 96 CURVE SMOOTH",
"1355 506 LINE",
"1232 506 LINE",
"1212 422 LINE",
"1222 443 LINE",
"1203 485 OFFCURVE",
"1151 516 OFFCURVE",
"1081 516 CURVE SMOOTH",
"944 516 OFFCURVE",
"828 413 OFFCURVE",
"828 244 CURVE SMOOTH",
"828 106 OFFCURVE",
"912 9 OFFCURVE",
"1055 9 CURVE SMOOTH",
"1141 9 OFFCURVE",
"1213 59 OFFCURVE",
"1234 157 CURVE",
"1209 155 LINE",
"1209 89 LINE SMOOTH",
"1209 -28 OFFCURVE",
"1154 -67 OFFCURVE",
"1033 -67 CURVE SMOOTH",
"989 -67 OFFCURVE",
"927 -54 OFFCURVE",
"881 -31 CURVE",
"846 -161 LINE",
"900 -189 OFFCURVE",
"969 -200 OFFCURVE",
"1031 -200 CURVE SMOOTH"
);
},
{
closed = 1;
nodes = (
"1015 136 OFFCURVE",
"979 178 OFFCURVE",
"979 247 CURVE SMOOTH",
"979 333 OFFCURVE",
"1030 390 OFFCURVE",
"1103 390 CURVE SMOOTH",
"1171 390 OFFCURVE",
"1209 353 OFFCURVE",
"1209 277 CURVE SMOOTH",
"1209 193 OFFCURVE",
"1160 136 OFFCURVE",
"1080 136 CURVE SMOOTH"
);
},
{
closed = 1;
nodes = (
"450 506 LINE",
"432 422 LINE",
"446 442 LINE",
"426 485 OFFCURVE",
"365 516 OFFCURVE",
"294 516 CURVE SMOOTH",
"154 516 OFFCURVE",
"37 405 OFFCURVE",
"37 223 CURVE SMOOTH",
"37 81 OFFCURVE",
"120 -10 OFFCURVE",
"248 -10 CURVE SMOOTH",
"347 -10 OFFCURVE",
"423 49 OFFCURVE",
"455 155 CURVE",
"409 155 LINE",
"409 0 LINE",
"555 0 LINE",
"555 506 LINE"
);
},
{
closed = 1;
nodes = (
"374 388 OFFCURVE",
"409 347 OFFCURVE",
"409 278 CURVE SMOOTH",
"409 187 OFFCURVE",
"356 118 OFFCURVE",
"286 118 CURVE SMOOTH",
"227 118 OFFCURVE",
"192 162 OFFCURVE",
"192 236 CURVE SMOOTH",
"192 328 OFFCURVE",
"240 388 OFFCURVE",
"313 388 CURVE SMOOTH"
);
}
);
};
hints = (
{
horizontal = 1;
place = "{-166, 123}";
type = Stem;
},
{
horizontal = 1;
place = "{47, 125}";
type = Stem;
},
{
horizontal = 1;
place = "{498, -20}";
target = down;
type = TopGhost;
},
{
place = "{46, 138}";
type = Stem;
},
{
place = "{369, 134}";
type = Stem;
},
{
horizontal = 1;
place = "{386, 129}";
type = Stem;
},
{
place = "{388, 115}";
type = Stem;
}
);
layerId = "014D4A40-7C7F-4023-B30E-1F55CE5EA091";
paths = (
{
closed = 1;
nodes = (
"432 -200 OFFCURVE",
"555 -104 OFFCURVE",
"555 96 CURVE SMOOTH",
"555 506 LINE",
"450 506 LINE",
"432 422 LINE",
"446 442 LINE",
"426 485 OFFCURVE",
"365 516 OFFCURVE",
"292 516 CURVE SMOOTH",
"150 516 OFFCURVE",
"31 409 OFFCURVE",
"31 234 CURVE SMOOTH",
"31 97 OFFCURVE",
"115 9 OFFCURVE",
"245 9 CURVE SMOOTH",
"345 9 OFFCURVE",
"423 66 OFFCURVE",
"455 168 CURVE",
"409 155 LINE",
"409 89 LINE SMOOTH",
"409 -28 OFFCURVE",
"354 -67 OFFCURVE",
"233 -67 CURVE SMOOTH",
"189 -67 OFFCURVE",
"127 -54 OFFCURVE",
"81 -31 CURVE",
"46 -161 LINE",
"100 -189 OFFCURVE",
"169 -200 OFFCURVE",
"231 -200 CURVE SMOOTH"
);
},
{
closed = 1;
nodes = (
"222 136 OFFCURVE",
"186 177 OFFCURVE",
"186 246 CURVE SMOOTH",
"186 332 OFFCURVE",
"235 389 OFFCURVE",
"310 389 CURVE SMOOTH",
"373 389 OFFCURVE",
"409 350 OFFCURVE",
"409 285 CURVE SMOOTH",
"409 200 OFFCURVE",
"355 136 OFFCURVE",
"283 136 CURVE SMOOTH"
);
}
);
width = 611;
}
);
leftKerningGroup = o;
leftMetricsKey = o;
note = g;
rightMetricsKey = "=|n";
unicode = 0067;
},
{
color = 4;
glyphname = h;
lastChange = "2019-02-24 21:43:48 +0000";
layers = (
{
background = {
paths = (
{
closed = 1;
nodes = (
"146 0 LINE",
"146 138 LINE SMOOTH",
"146 321 OFFCURVE",
"218 434 OFFCURVE",
"319 434 CURVE SMOOTH",
"389 434 OFFCURVE",
"422 386 OFFCURVE",
"422 284 CURVE SMOOTH",
"422 0 LINE",
"499 0 LINE",
"499 287 LINE SMOOTH",
"499 431 OFFCURVE",
"439 507 OFFCURVE",
"328 507 CURVE SMOOTH",
"239 507 OFFCURVE",
"152 438 OFFCURVE",
"132 335 CURVE",
"146 336 LINE",
"146 710 LINE",
"68 710 LINE",
"68 0 LINE"
);
}
);
};
hints = (
{
horizontal = 1;
place = "{0, 21}";
target = up;
type = BottomGhost;
},
{
horizontal = 1;
place = "{432, 75}";
type = Stem;
},
{
horizontal = 1;
place = "{664, -20}";
target = down;
type = TopGhost;
},
{
place = "{72, 77}";
type = Stem;
},
{
place = "{401, 77}";
type = Stem;
}
);
layerId = "A3B50665-EA37-4AC6-885C-1233CA61B6BD";
paths = (
{
closed = 1;
nodes = (
"146 0 LINE",
"146 90 LINE SMOOTH",
"146 362 OFFCURVE",
"237 434 OFFCURVE",
"316 434 CURVE SMOOTH",
"390 434 OFFCURVE",
"422 385 OFFCURVE",
"422 270 CURVE SMOOTH",
"422 0 LINE",
"500 0 LINE",
"500 279 LINE SMOOTH",
"500 433 OFFCURVE",
"443 507 OFFCURVE",
"328 507 CURVE SMOOTH",
"239 507 OFFCURVE",
"152 437 OFFCURVE",
"131 310 CURVE",
"146 343 LINE",
"146 710 LINE",
"68 710 LINE",
"68 0 LINE"
);
}
);
width = 566;
},
{
background = {
paths = (
{
closed = 1;
nodes = (
"202 0 LINE",
"202 130 LINE SMOOTH",
"202 316 OFFCURVE",
"272 379 OFFCURVE",
"338 379 CURVE SMOOTH",
"391 379 OFFCURVE",
"416 353 OFFCURVE",
"416 257 CURVE SMOOTH",
"416 0 LINE",
"559 0 LINE",
"559 268 LINE SMOOTH",
"559 444 OFFCURVE",
"495 516 OFFCURVE",
"377 516 CURVE SMOOTH",
"290 516 OFFCURVE",
"198 456 OFFCURVE",
"176 341 CURVE",
"202 351 LINE",
"202 712 LINE",
"56 710 LINE",
"56 0 LINE"
);
}
);
};
hints = (
{
horizontal = 1;
place = "{0, 21}";
target = up;
type = BottomGhost;
},
{
horizontal = 1;
place = "{386, 129}";
type = Stem;
},
{
horizontal = 1;
place = "{672, -20}";
target = down;
type = TopGhost;
},
{
place = "{54, 134}";
type = Stem;
},
{
place = "{364, 134}";
type = Stem;
}
);
layerId = "014D4A40-7C7F-4023-B30E-1F55CE5EA091";
paths = (
{
closed = 1;
nodes = (
"202 0 LINE",
"202 80 LINE SMOOTH",
"202 318 OFFCURVE",
"272 381 OFFCURVE",
"335 381 CURVE SMOOTH",
"393 381 OFFCURVE",
"416 341 OFFCURVE",
"416 240 CURVE SMOOTH",
"416 0 LINE",
"562 0 LINE",
"562 251 LINE SMOOTH",
"562 432 OFFCURVE",
"502 516 OFFCURVE",
"377 516 CURVE SMOOTH",
"290 516 OFFCURVE",
"198 456 OFFCURVE",
"171 331 CURVE",
"202 349 LINE",
"202 710 LINE",
"56 710 LINE",
"56 0 LINE"
);
}
);
width = 616;
}
);
leftMetricsKey = n;
note = h;
rightMetricsKey = n;
unicode = 0068;
},
{
color = 3;
glyphname = i;
lastChange = "2019-02-23 22:40:44 +0000";
layers = (
{
background = {
paths = (
{
closed = 1;
nodes = (
"68 498 LINE",
"68 0 LINE",
"145 0 LINE",
"145 498 LINE"
);
},
{
closed = 1;
nodes = (
"142 604 OFFCURVE",
"163 629 OFFCURVE",
"163 660 CURVE SMOOTH",
"163 690 OFFCURVE",
"142 715 OFFCURVE",
"107 715 CURVE SMOOTH",
"72 715 OFFCURVE",
"50 690 OFFCURVE",
"50 660 CURVE SMOOTH",
"50 629 OFFCURVE",
"72 604 OFFCURVE",
"107 604 CURVE SMOOTH"
);
}
);
};
hints = (
{
horizontal = 1;
place = "{0, 21}";
target = up;
type = BottomGhost;
},
{
horizontal = 1;
place = "{499, -20}";
target = down;
type = TopGhost;
},
{
horizontal = 1;
place = "{577, 87}";
type = Stem;
},
{
place = "{72, 77}";
type = Stem;
}
);
layerId = "A3B50665-EA37-4AC6-885C-1233CA61B6BD";
paths = (
{
closed = 1;
nodes = (
"68 498 LINE",
"68 0 LINE",
"145 0 LINE",
"145 498 LINE"
);
},
{
closed = 1;
nodes = (
"142 604 OFFCURVE",
"163 629 OFFCURVE",
"163 660 CURVE SMOOTH",
"163 690 OFFCURVE",
"142 715 OFFCURVE",
"107 715 CURVE SMOOTH",
"72 715 OFFCURVE",
"50 690 OFFCURVE",
"50 660 CURVE SMOOTH",
"50 629 OFFCURVE",
"72 604 OFFCURVE",
"107 604 CURVE SMOOTH"
);
}
);
width = 213;
},
{
background = {
paths = (
{
closed = 1;
nodes = (
"56 508 LINE",
"56 0 LINE",
"202 0 LINE",
"202 508 LINE"
);
},
{
closed = 1;
nodes = (
"188 558 OFFCURVE",
"225 599 OFFCURVE",
"225 650 CURVE SMOOTH",
"225 701 OFFCURVE",
"188 742 OFFCURVE",
"129 742 CURVE SMOOTH",
"70 742 OFFCURVE",
"33 701 OFFCURVE",
"33 650 CURVE SMOOTH",
"33 599 OFFCURVE",
"70 558 OFFCURVE",
"129 558 CURVE SMOOTH"
);
}
);
};
hints = (
{
horizontal = 1;
place = "{0, 21}";
target = up;
type = BottomGhost;
},
{
horizontal = 1;
place = "{514, -20}";
target = down;
type = TopGhost;
},
{
horizontal = 1;
place = "{556, 116}";
type = Stem;
},
{
place = "{54, 134}";
type = Stem;
}
);
layerId = "014D4A40-7C7F-4023-B30E-1F55CE5EA091";
paths = (
{
closed = 1;
nodes = (
"56 508 LINE",
"56 0 LINE",
"202 0 LINE",
"202 508 LINE"
);
},
{
closed = 1;
nodes = (
"188 558 OFFCURVE",
"225 599 OFFCURVE",
"225 650 CURVE SMOOTH",
"225 701 OFFCURVE",
"188 742 OFFCURVE",
"129 742 CURVE SMOOTH",
"70 742 OFFCURVE",
"33 701 OFFCURVE",
"33 650 CURVE SMOOTH",
"33 599 OFFCURVE",
"70 558 OFFCURVE",
"129 558 CURVE SMOOTH"
);
}
);
width = 258;
}
);
note = i;
unicode = 0069;
},
{
color = 3;
glyphname = j;
lastChange = "2019-02-23 22:40:44 +0000";
layers = (
{
background = {
paths = (
{
closed = 1;
nodes = (
"87 -200 OFFCURVE",
"161 -124 OFFCURVE",
"161 6 CURVE SMOOTH",
"161 498 LINE",
"84 498 LINE",
"84 10 LINE SMOOTH",
"84 -77 OFFCURVE",
"51 -130 OFFCURVE",
"-31 -130 CURVE SMOOTH",
"-58 -130 OFFCURVE",
"-85 -125 OFFCURVE",
"-110 -114 CURVE",
"-128 -180 LINE",
"-103 -194 OFFCURVE",
"-65 -200 OFFCURVE",
"-29 -200 CURVE SMOOTH"
);
},
{
closed = 1;
nodes = (
"156 604 OFFCURVE",
"179 627 OFFCURVE",
"179 660 CURVE SMOOTH",
"179 692 OFFCURVE",
"156 715 OFFCURVE",
"123 715 CURVE SMOOTH",
"90 715 OFFCURVE",
"66 692 OFFCURVE",
"66 660 CURVE SMOOTH",
"66 627 OFFCURVE",
"90 604 OFFCURVE",
"123 604 CURVE SMOOTH"
);
}
);
};
layerId = "A3B50665-EA37-4AC6-885C-1233CA61B6BD";
paths = (
{
closed = 1;
nodes = (
"87 -200 OFFCURVE",
"161 -124 OFFCURVE",
"161 6 CURVE SMOOTH",
"161 498 LINE",
"84 498 LINE",
"84 10 LINE SMOOTH",
"84 -77 OFFCURVE",
"51 -130 OFFCURVE",
"-31 -130 CURVE SMOOTH",
"-58 -130 OFFCURVE",
"-85 -125 OFFCURVE",
"-110 -114 CURVE",
"-128 -180 LINE",
"-103 -194 OFFCURVE",
"-65 -200 OFFCURVE",
"-29 -200 CURVE SMOOTH"
);
},
{
closed = 1;
nodes = (
"156 604 OFFCURVE",
"179 627 OFFCURVE",
"179 660 CURVE SMOOTH",
"179 692 OFFCURVE",
"156 715 OFFCURVE",
"123 715 CURVE SMOOTH",
"90 715 OFFCURVE",
"66 692 OFFCURVE",
"66 660 CURVE SMOOTH",
"66 627 OFFCURVE",
"90 604 OFFCURVE",
"123 604 CURVE SMOOTH"
);
}
);
width = 229;
},
{
background = {
paths = (
{
closed = 1;
nodes = (
"118 -200 OFFCURVE",
"211 -119 OFFCURVE",
"211 27 CURVE SMOOTH",
"211 508 LINE",
"65 508 LINE",
"65 26 LINE SMOOTH",
"65 -44 OFFCURVE",
"37 -76 OFFCURVE",
"-26 -76 CURVE SMOOTH",
"-58 -76 OFFCURVE",
"-92 -69 OFFCURVE",
"-113 -63 CURVE",
"-134 -183 LINE",
"-105 -194 OFFCURVE",
"-64 -200 OFFCURVE",
"-21 -200 CURVE SMOOTH"
);
},
{
closed = 1;
nodes = (
"194 558 OFFCURVE",
"234 596 OFFCURVE",
"234 650 CURVE SMOOTH",
"234 704 OFFCURVE",
"194 742 OFFCURVE",
"138 742 CURVE SMOOTH",
"82 742 OFFCURVE",
"42 704 OFFCURVE",
"42 650 CURVE SMOOTH",
"42 596 OFFCURVE",
"82 558 OFFCURVE",
"138 558 CURVE SMOOTH"
);
}
);
};
layerId = "014D4A40-7C7F-4023-B30E-1F55CE5EA091";
paths = (
{
closed = 1;
nodes = (
"118 -200 OFFCURVE",
"211 -119 OFFCURVE",
"211 27 CURVE SMOOTH",
"211 508 LINE",
"65 508 LINE",
"65 26 LINE SMOOTH",
"65 -44 OFFCURVE",
"37 -76 OFFCURVE",
"-26 -76 CURVE SMOOTH",
"-58 -76 OFFCURVE",
"-92 -69 OFFCURVE",
"-113 -63 CURVE",
"-134 -183 LINE",
"-105 -194 OFFCURVE",
"-64 -200 OFFCURVE",
"-21 -200 CURVE SMOOTH"
);
},
{
closed = 1;
nodes = (
"194 558 OFFCURVE",
"234 596 OFFCURVE",
"234 650 CURVE SMOOTH",
"234 704 OFFCURVE",
"194 742 OFFCURVE",
"138 742 CURVE SMOOTH",
"82 742 OFFCURVE",
"42 704 OFFCURVE",
"42 650 CURVE SMOOTH",
"42 596 OFFCURVE",
"82 558 OFFCURVE",
"138 558 CURVE SMOOTH"
);
}
);
width = 267;
}
);
unicode = 006A;
},
{
color = 4;
glyphname = k;
lastChange = "2019-02-24 20:42:54 +0000";
layers = (
{
background = {
paths = (
{
closed = 1;
nodes = (
"477 70 LINE",
"463 65 OFFCURVE",
"445 61 OFFCURVE",
"427 61 CURVE SMOOTH",
"384 61 OFFCURVE",
"354 83 OFFCURVE",
"310 140 CURVE SMOOTH",
"191 292 LINE",
"195 238 LINE",
"458 497 LINE",
"359 497 LINE",
"133 273 LINE",
"132 248 LINE",
"270 74 LINE SMOOTH",
"312 20 OFFCURVE",
"354 -3 OFFCURVE",
"414 -6 CURVE SMOOTH",
"440 -7 OFFCURVE",
"465 -2 OFFCURVE",
"488 9 CURVE"
);
},
{
closed = 1;
nodes = (
"146 0 LINE",
"146 710 LINE",
"68 710 LINE",
"68 0 LINE"
);
}
);
};
guideLines = (
{
angle = 128.8201;
position = "{295, 161}";
}
);
hints = (
{
horizontal = 1;
place = "{0, 21}";
target = up;
type = BottomGhost;
},
{
horizontal = 1;
place = "{214, 70}";
type = Stem;
},
{
horizontal = 1;
place = "{498, -20}";
target = down;
type = TopGhost;
},
{
horizontal = 1;
place = "{664, -20}";
target = down;
type = TopGhost;
},
{
place = "{72, 77}";
type = Stem;
},
{
place = "{352, 77}";
type = Stem;
}
);
layerId = "A3B50665-EA37-4AC6-885C-1233CA61B6BD";
paths = (
{
closed = 1;
nodes = (
"477 70 LINE",
"463 65 OFFCURVE",
"445 61 OFFCURVE",
"427 61 CURVE SMOOTH",
"384 61 OFFCURVE",
"354 83 OFFCURVE",
"310 140 CURVE SMOOTH",
"191 292 LINE",
"195 238 LINE",
"458 497 LINE",
"359 497 LINE",
"133 273 LINE",
"132 248 LINE",
"270 74 LINE SMOOTH",
"312 20 OFFCURVE",
"354 -3 OFFCURVE",
"414 -6 CURVE SMOOTH",
"440 -7 OFFCURVE",
"465 -2 OFFCURVE",
"488 9 CURVE"
);
},
{
closed = 1;
nodes = (
"146 0 LINE",
"146 710 LINE",
"68 710 LINE",
"68 0 LINE"
);
}
);
width = 482;
},
{
background = {
paths = (
{
closed = 1;
nodes = (
"568 129 LINE",
"547 122 OFFCURVE",
"527 117 OFFCURVE",
"505 117 CURVE SMOOTH",
"462 117 OFFCURVE",
"435 131 OFFCURVE",
"399 181 CURVE SMOOTH",
"316 294 LINE",
"313 235 LINE",
"561 508 LINE",
"387 508 LINE",
"178 280 LINE",
"174 249 LINE",
"296 82 LINE SMOOTH",
"341 21 OFFCURVE",
"403 -8 OFFCURVE",
"480 -10 CURVE SMOOTH",
"520 -11 OFFCURVE",
"560 -2 OFFCURVE",
"590 14 CURVE"
);
},
{
closed = 1;
nodes = (
"202 0 LINE",
"202 710 LINE",
"56 710 LINE",
"56 0 LINE"
);
}
);
};
guideLines = (
{
angle = 126.1496;
position = "{410, 166}";
}
);
hints = (
{
horizontal = 1;
place = "{0, 21}";
target = up;
type = BottomGhost;
},
{
horizontal = 1;
place = "{188, 123}";
type = Stem;
},
{
horizontal = 1;
place = "{498, -20}";
target = down;
type = TopGhost;
},
{
horizontal = 1;
place = "{672, -20}";
target = down;
type = TopGhost;
},
{
place = "{54, 134}";
type = Stem;
},
{
place = "{318, 134}";
type = Stem;
}
);
layerId = "014D4A40-7C7F-4023-B30E-1F55CE5EA091";
paths = (
{
closed = 1;
nodes = (
"568 129 LINE",
"547 122 OFFCURVE",
"527 117 OFFCURVE",
"505 117 CURVE SMOOTH",
"462 117 OFFCURVE",
"435 131 OFFCURVE",
"399 181 CURVE SMOOTH",
"316 294 LINE",
"313 235 LINE",
"561 508 LINE",
"387 508 LINE",
"178 280 LINE",
"174 249 LINE",
"296 82 LINE SMOOTH",
"341 21 OFFCURVE",
"403 -8 OFFCURVE",
"480 -10 CURVE SMOOTH",
"520 -11 OFFCURVE",
"560 -2 OFFCURVE",
"590 14 CURVE"
);
},
{
closed = 1;
nodes = (
"202 0 LINE",
"202 710 LINE",
"56 710 LINE",
"56 0 LINE"
);
}
);
width = 570;
}
);
leftMetricsKey = h;
note = k;
unicode = 006B;
},
{
color = 4;
glyphname = l;
lastChange = "2019-02-24 20:42:59 +0000";
layers = (
{
background = {
paths = (
{
closed = 1;
nodes = (
"68 710 LINE",
"68 0 LINE",
"146 0 LINE",
"146 710 LINE"
);
}
);
};
hints = (
{
horizontal = 1;
place = "{0, 21}";
target = up;
type = BottomGhost;
},
{
horizontal = 1;
place = "{664, -20}";
target = down;
type = TopGhost;
},
{
place = "{72, 77}";
type = Stem;
}
);
layerId = "A3B50665-EA37-4AC6-885C-1233CA61B6BD";
paths = (
{
closed = 1;
nodes = (
"68 710 LINE",
"68 0 LINE",
"146 0 LINE",
"146 710 LINE"
);
}
);
width = 214;
},
{
background = {
paths = (
{
closed = 1;
nodes = (
"56 709 LINE",
"56 0 LINE",
"202 0 LINE",
"202 710 LINE"
);
}
);
};
hints = (
{
horizontal = 1;
place = "{0, 21}";
target = up;
type = BottomGhost;
},
{
horizontal = 1;
place = "{672, -20}";
target = down;
type = TopGhost;
},
{
place = "{54, 134}";
type = Stem;
}
);
layerId = "014D4A40-7C7F-4023-B30E-1F55CE5EA091";
paths = (
{
closed = 1;
nodes = (
"56 709 LINE",
"56 0 LINE",
"202 0 LINE",
"202 710 LINE"
);
}
);
width = 258;
}
);
leftMetricsKey = h;
note = l;
rightMetricsKey = "=|";
unicode = 006C;
},
{
color = 3;
glyphname = m;
lastChange = "2019-02-24 21:16:02 +0000";
layers = (
{
background = {
paths = (
{
closed = 1;
nodes = (
"146 0 LINE",
"146 90 LINE SMOOTH",
"146 362 OFFCURVE",
"237 434 OFFCURVE",
"314 434 CURVE SMOOTH",
"386 434 OFFCURVE",
"418 385 OFFCURVE",
"418 270 CURVE SMOOTH",
"418 0 LINE",
"496 0 LINE",
"496 279 LINE SMOOTH",
"496 433 OFFCURVE",
"439 507 OFFCURVE",
"326 507 CURVE SMOOTH",
"239 507 OFFCURVE",
"152 437 OFFCURVE",
"131 310 CURVE",
"144 343 LINE",
"144 498 LINE",
"68 498 LINE",
"68 0 LINE"
);
},
{
closed = 1;
nodes = (
"496 90 LINE",
"496 362 OFFCURVE",
"587 434 OFFCURVE",
"664 434 CURVE SMOOTH",
"736 434 OFFCURVE",
"768 385 OFFCURVE",
"768 270 CURVE SMOOTH",
"768 0 LINE",
"846 0 LINE",
"846 279 LINE SMOOTH",
"846 433 OFFCURVE",
"789 507 OFFCURVE",
"676 507 CURVE SMOOTH",
"586 507 OFFCURVE",
"497 437 OFFCURVE",
"475 310 CURVE"
);
}
);
};
hints = (
{
horizontal = 1;
place = "{0, 21}";
target = up;
type = BottomGhost;
},
{
horizontal = 1;
place = "{432, 75}";
type = Stem;
},
{
place = "{72, 77}";
type = Stem;
},
{
place = "{385, 77}";
type = Stem;
},
{
place = "{698, 77}";
type = Stem;
}
);
layerId = "A3B50665-EA37-4AC6-885C-1233CA61B6BD";
paths = (
{
closed = 1;
nodes = (
"586 507 OFFCURVE",
"497 437 OFFCURVE",
"475 310 CURVE",
"494 324 LINE",
"484 448 OFFCURVE",
"427 507 OFFCURVE",
"326 507 CURVE SMOOTH",
"239 507 OFFCURVE",
"152 437 OFFCURVE",
"131 310 CURVE",
"144 343 LINE",
"144 498 LINE",
"68 498 LINE",
"68 0 LINE",
"146 0 LINE",
"146 90 LINE SMOOTH",
"146 362 OFFCURVE",
"237 434 OFFCURVE",
"314 434 CURVE SMOOTH",
"386 434 OFFCURVE",
"418 385 OFFCURVE",
"418 270 CURVE SMOOTH",
"418 0 LINE",
"496 0 LINE",
"496 90 LINE SMOOTH",
"496 362 OFFCURVE",
"587 434 OFFCURVE",
"664 434 CURVE SMOOTH",
"736 434 OFFCURVE",
"768 385 OFFCURVE",
"768 270 CURVE SMOOTH",
"768 0 LINE",
"846 0 LINE",
"846 279 LINE SMOOTH",
"846 433 OFFCURVE",
"789 507 OFFCURVE",
"676 507 CURVE SMOOTH"
);
}
);
width = 912;
},
{
background = {
paths = (
{
closed = 1;
nodes = (
"202 0 LINE",
"202 80 LINE SMOOTH",
"202 318 OFFCURVE",
"272 381 OFFCURVE",
"332 381 CURVE SMOOTH",
"387 381 OFFCURVE",
"410 341 OFFCURVE",
"410 240 CURVE SMOOTH",
"410 0 LINE",
"556 0 LINE",
"556 251 LINE SMOOTH",
"556 432 OFFCURVE",
"496 516 OFFCURVE",
"374 516 CURVE SMOOTH",
"290 516 OFFCURVE",
"198 456 OFFCURVE",
"171 331 CURVE",
"100 349 LINE",
"200 508 LINE",
"56 508 LINE",
"56 0 LINE"
);
},
{
closed = 1;
nodes = (
"556 80 LINE",
"556 318 OFFCURVE",
"626 381 OFFCURVE",
"686 381 CURVE SMOOTH",
"741 381 OFFCURVE",
"764 341 OFFCURVE",
"764 240 CURVE SMOOTH",
"764 0 LINE",
"910 0 LINE",
"910 251 LINE SMOOTH",
"910 432 OFFCURVE",
"850 516 OFFCURVE",
"728 516 CURVE SMOOTH",
"640 516 OFFCURVE",
"543 456 OFFCURVE",
"515 331 CURVE"
);
}
);
};
hints = (
{
horizontal = 1;
place = "{0, 21}";
target = up;
type = BottomGhost;
},
{
horizontal = 1;
place = "{386, 129}";
type = Stem;
}
);
layerId = "014D4A40-7C7F-4023-B30E-1F55CE5EA091";
paths = (
{
closed = 1;
nodes = (
"640 516 OFFCURVE",
"543 456 OFFCURVE",
"515 331 CURVE",
"548 353 LINE",
"529 464 OFFCURVE",
"470 516 OFFCURVE",
"374 516 CURVE SMOOTH",
"290 516 OFFCURVE",
"198 456 OFFCURVE",
"171 331 CURVE",
"200 349 LINE",
"200 508 LINE",
"56 508 LINE",
"56 0 LINE",
"202 0 LINE",
"202 80 LINE SMOOTH",
"202 318 OFFCURVE",
"272 381 OFFCURVE",
"332 381 CURVE SMOOTH",
"387 381 OFFCURVE",
"410 341 OFFCURVE",
"410 240 CURVE SMOOTH",
"410 0 LINE",
"556 0 LINE",
"556 80 LINE SMOOTH",
"556 318 OFFCURVE",
"626 381 OFFCURVE",
"686 381 CURVE SMOOTH",
"741 381 OFFCURVE",
"764 341 OFFCURVE",
"764 240 CURVE SMOOTH",
"764 0 LINE",
"910 0 LINE",
"910 251 LINE SMOOTH",
"910 432 OFFCURVE",
"850 516 OFFCURVE",
"728 516 CURVE SMOOTH"
);
}
);
width = 964;
}
);
leftMetricsKey = n;
note = m;
rightMetricsKey = n;
unicode = 006D;
},
{
color = 4;
glyphname = n;
lastChange = "2019-02-28 10:10:25 +0000";
layers = (
{
background = {
paths = (
{
closed = 1;
nodes = (
"746 0 LINE",
"746 138 LINE SMOOTH",
"746 321 OFFCURVE",
"818 434 OFFCURVE",
"919 434 CURVE SMOOTH",
"989 434 OFFCURVE",
"1022 386 OFFCURVE",
"1022 284 CURVE SMOOTH",
"1022 0 LINE",
"1099 0 LINE",
"1099 287 LINE SMOOTH",
"1099 431 OFFCURVE",
"1039 507 OFFCURVE",
"928 507 CURVE SMOOTH",
"839 507 OFFCURVE",
"752 438 OFFCURVE",
"732 335 CURVE",
"745 343 LINE",
"745 498 LINE",
"668 498 LINE",
"668 0 LINE"
);
},
{
closed = 1;
nodes = (
"427 498 LINE",
"423 416 LINE",
"433 421 LINE",
"415 472 OFFCURVE",
"357 507 OFFCURVE",
"289 507 CURVE SMOOTH",
"148 507 OFFCURVE",
"51 390 OFFCURVE",
"51 220 CURVE SMOOTH",
"51 81 OFFCURVE",
"128 -8 OFFCURVE",
"247 -8 CURVE SMOOTH",
"339 -8 OFFCURVE",
"412 53 OFFCURVE",
"441 154 CURVE",
"422 154 LINE",
"422 0 LINE",
"498 0 LINE",
"498 498 LINE"
);
},
{
closed = 1;
nodes = (
"374 435 OFFCURVE",
"421 379 OFFCURVE",
"421 284 CURVE SMOOTH",
"421 159 OFFCURVE",
"350 64 OFFCURVE",
"257 64 CURVE SMOOTH",
"179 64 OFFCURVE",
"132 124 OFFCURVE",
"132 226 CURVE SMOOTH",
"132 353 OFFCURVE",
"195 435 OFFCURVE",
"293 435 CURVE SMOOTH"
);
}
);
};
hints = (
{
horizontal = 1;
place = "{0, 21}";
target = up;
type = BottomGhost;
},
{
horizontal = 1;
place = "{432, 75}";
type = Stem;
},
{
place = "{72, 77}";
type = Stem;
},
{
place = "{401, 77}";
type = Stem;
}
);
layerId = "A3B50665-EA37-4AC6-885C-1233CA61B6BD";
paths = (
{
closed = 1;
nodes = (
"146 0 LINE",
"146 90 LINE SMOOTH",
"146 362 OFFCURVE",
"237 434 OFFCURVE",
"316 434 CURVE SMOOTH",
"390 434 OFFCURVE",
"422 385 OFFCURVE",
"422 270 CURVE SMOOTH",
"422 0 LINE",
"500 0 LINE",
"500 279 LINE SMOOTH",
"500 433 OFFCURVE",
"443 507 OFFCURVE",
"328 507 CURVE SMOOTH",
"239 507 OFFCURVE",
"152 437 OFFCURVE",
"131 310 CURVE",
"144 343 LINE",
"144 498 LINE",
"68 498 LINE",
"68 0 LINE"
);
}
);
width = 566;
},
{
background = {
paths = (
{
closed = 1;
nodes = (
"202 0 LINE",
"202 80 LINE SMOOTH",
"202 318 OFFCURVE",
"272 381 OFFCURVE",
"335 381 CURVE SMOOTH",
"393 381 OFFCURVE",
"416 341 OFFCURVE",
"416 240 CURVE SMOOTH",
"416 0 LINE",
"562 0 LINE",
"562 251 LINE SMOOTH",
"562 432 OFFCURVE",
"502 516 OFFCURVE",
"377 516 CURVE SMOOTH",
"290 516 OFFCURVE",
"198 456 OFFCURVE",
"171 331 CURVE",
"200 349 LINE",
"200 508 LINE",
"56 508 LINE",
"56 0 LINE"
);
}
);
};
hints = (
{
horizontal = 1;
place = "{0, 21}";
target = up;
type = BottomGhost;
},
{
horizontal = 1;
place = "{386, 129}";
type = Stem;
},
{
place = "{54, 134}";
type = Stem;
},
{
place = "{364, 134}";
type = Stem;
}
);
layerId = "014D4A40-7C7F-4023-B30E-1F55CE5EA091";
paths = (
{
closed = 1;
nodes = (
"202 0 LINE",
"202 80 LINE SMOOTH",
"202 318 OFFCURVE",
"272 381 OFFCURVE",
"335 381 CURVE SMOOTH",
"393 381 OFFCURVE",
"416 341 OFFCURVE",
"416 240 CURVE SMOOTH",
"416 0 LINE",
"562 0 LINE",
"562 251 LINE SMOOTH",
"562 432 OFFCURVE",
"502 516 OFFCURVE",
"377 516 CURVE SMOOTH",
"290 516 OFFCURVE",
"198 456 OFFCURVE",
"171 331 CURVE",
"200 349 LINE",
"200 508 LINE",
"56 508 LINE",
"56 0 LINE"
);
}
);
width = 616;
}
);
note = n;
unicode = 006E;
},
{
color = 4;
glyphname = o;
lastChange = "2019-02-24 19:57:32 +0000";
layers = (
{
background = {
paths = (
{
closed = 1;
nodes = (
"842 507 OFFCURVE",
"745 398 OFFCURVE",
"745 243 CURVE SMOOTH",
"745 89 OFFCURVE",
"831 -8 OFFCURVE",
"970 -8 CURVE SMOOTH",
"1110 -8 OFFCURVE",
"1206 101 OFFCURVE",
"1206 257 CURVE SMOOTH",
"1206 410 OFFCURVE",
"1120 507 OFFCURVE",
"982 507 CURVE SMOOTH"
);
},
{
closed = 1;
nodes = (
"878 63 OFFCURVE",
"824 126 OFFCURVE",
"824 238 CURVE SMOOTH",
"824 356 OFFCURVE",
"887 436 OFFCURVE",
"980 436 CURVE SMOOTH",
"1074 436 OFFCURVE",
"1128 373 OFFCURVE",
"1128 262 CURVE SMOOTH",
"1128 143 OFFCURVE",
"1066 63 OFFCURVE",
"973 63 CURVE SMOOTH"
);
},
{
closed = 1;
nodes = (
"413 -8 OFFCURVE",
"506 107 OFFCURVE",
"506 259 CURVE SMOOTH",
"506 412 OFFCURVE",
"421 507 OFFCURVE",
"281 507 CURVE SMOOTH",
"139 507 OFFCURVE",
"45 392 OFFCURVE",
"45 238 CURVE SMOOTH",
"45 87 OFFCURVE",
"130 -8 OFFCURVE",
"267 -8 CURVE SMOOTH"
);
},
{
closed = 1;
nodes = (
"373 436 OFFCURVE",
"427 373 OFFCURVE",
"427 259 CURVE SMOOTH",
"427 143 OFFCURVE",
"364 63 OFFCURVE",
"267 63 CURVE SMOOTH",
"178 63 OFFCURVE",
"124 126 OFFCURVE",
"124 238 CURVE SMOOTH",
"124 356 OFFCURVE",
"187 436 OFFCURVE",
"281 436 CURVE SMOOTH"
);
}
);
};
hints = (
{
horizontal = 1;
place = "{-8, 75}";
type = Stem;
},
{
horizontal = 1;
place = "{432, 75}";
type = Stem;
},
{
place = "{64, 77}";
type = Stem;
},
{
place = "{405, 77}";
type = Stem;
}
);
layerId = "A3B50665-EA37-4AC6-885C-1233CA61B6BD";
paths = (
{
closed = 1;
nodes = (
"138 507 OFFCURVE",
"45 392 OFFCURVE",
"45 240 CURVE SMOOTH",
"45 87 OFFCURVE",
"130 -8 OFFCURVE",
"270 -8 CURVE SMOOTH",
"412 -8 OFFCURVE",
"506 107 OFFCURVE",
"506 259 CURVE SMOOTH",
"506 412 OFFCURVE",
"421 507 OFFCURVE",
"284 507 CURVE SMOOTH"
);
},
{
closed = 1;
nodes = (
"178 63 OFFCURVE",
"124 126 OFFCURVE",
"124 240 CURVE SMOOTH",
"124 356 OFFCURVE",
"187 436 OFFCURVE",
"284 436 CURVE SMOOTH",
"373 436 OFFCURVE",
"427 373 OFFCURVE",
"427 259 CURVE SMOOTH",
"427 143 OFFCURVE",
"364 63 OFFCURVE",
"270 63 CURVE SMOOTH"
);
}
);
width = 551;
},
{
background = {
paths = (
{
closed = 1;
nodes = (
"744 516 OFFCURVE",
"631 394 OFFCURVE",
"631 241 CURVE SMOOTH",
"631 87 OFFCURVE",
"727 -10 OFFCURVE",
"885 -10 CURVE SMOOTH",
"1042 -10 OFFCURVE",
"1148 101 OFFCURVE",
"1148 263 CURVE SMOOTH",
"1148 419 OFFCURVE",
"1055 516 OFFCURVE",
"900 516 CURVE SMOOTH"
);
},
{
closed = 1;
nodes = (
"823 117 OFFCURVE",
"781 163 OFFCURVE",
"781 242 CURVE SMOOTH",
"781 327 OFFCURVE",
"829 389 OFFCURVE",
"896 389 CURVE SMOOTH",
"962 389 OFFCURVE",
"999 344 OFFCURVE",
"999 264 CURVE SMOOTH",
"999 174 OFFCURVE",
"958 117 OFFCURVE",
"889 117 CURVE SMOOTH"
);
},
{
closed = 1;
nodes = (
"442 -10 OFFCURVE",
"548 107 OFFCURVE",
"548 265 CURVE SMOOTH",
"548 419 OFFCURVE",
"452 516 OFFCURVE",
"294 516 CURVE SMOOTH",
"137 516 OFFCURVE",
"31 399 OFFCURVE",
"31 241 CURVE SMOOTH",
"31 87 OFFCURVE",
"127 -10 OFFCURVE",
"281 -10 CURVE SMOOTH"
);
},
{
closed = 1;
nodes = (
"363 389 OFFCURVE",
"398 344 OFFCURVE",
"398 265 CURVE SMOOTH",
"398 178 OFFCURVE",
"360 117 OFFCURVE",
"281 117 CURVE SMOOTH",
"216 117 OFFCURVE",
"181 162 OFFCURVE",
"181 241 CURVE SMOOTH",
"181 328 OFFCURVE",
"219 389 OFFCURVE",
"294 389 CURVE SMOOTH"
);
}
);
};
hints = (
{
horizontal = 1;
place = "{-8, 129}";
type = Stem;
},
{
horizontal = 1;
place = "{386, 129}";
type = Stem;
},
{
place = "{46, 134}";
type = Stem;
},
{
place = "{366, 134}";
type = Stem;
}
);
layerId = "014D4A40-7C7F-4023-B30E-1F55CE5EA091";
paths = (
{
closed = 1;
nodes = (
"137 516 OFFCURVE",
"31 399 OFFCURVE",
"31 241 CURVE SMOOTH",
"31 87 OFFCURVE",
"127 -10 OFFCURVE",
"284 -10 CURVE SMOOTH",
"448 -10 OFFCURVE",
"554 107 OFFCURVE",
"554 265 CURVE SMOOTH",
"554 419 OFFCURVE",
"458 516 OFFCURVE",
"301 516 CURVE SMOOTH"
);
},
{
closed = 1;
nodes = (
"219 117 OFFCURVE",
"181 162 OFFCURVE",
"181 241 CURVE SMOOTH",
"181 328 OFFCURVE",
"220 389 OFFCURVE",
"297 389 CURVE SMOOTH",
"366 389 OFFCURVE",
"404 344 OFFCURVE",
"404 265 CURVE SMOOTH",
"404 178 OFFCURVE",
"365 117 OFFCURVE",
"288 117 CURVE SMOOTH"
);
}
);
width = 585;
}
);
leftKerningGroup = o;
note = o;
rightKerningGroup = o;
rightMetricsKey = "=|";
unicode = 006F;
},
{
color = 4;
glyphname = p;
lastChange = "2019-02-24 20:50:40 +0000";
layers = (
{
background = {
paths = (
{
closed = 1;
nodes = (
"745 -90 LINE",
"745 183 LINE",
"737 176 LINE",
"759 123 OFFCURVE",
"811 92 OFFCURVE",
"880 92 CURVE SMOOTH",
"1019 92 OFFCURVE",
"1114 203 OFFCURVE",
"1114 374 CURVE SMOOTH",
"1114 515 OFFCURVE",
"1040 607 OFFCURVE",
"924 607 CURVE SMOOTH",
"826 607 OFFCURVE",
"751 546 OFFCURVE",
"731 449 CURVE",
"744 445 LINE",
"744 599 LINE",
"668 599 LINE",
"668 -90 LINE"
);
},
{
closed = 1;
nodes = (
"789 164 OFFCURVE",
"746 216 OFFCURVE",
"746 315 CURVE SMOOTH",
"746 426 OFFCURVE",
"803 535 OFFCURVE",
"905 535 CURVE SMOOTH",
"986 535 OFFCURVE",
"1034 474 OFFCURVE",
"1034 368 CURVE SMOOTH",
"1034 243 OFFCURVE",
"970 164 OFFCURVE",
"873 164 CURVE SMOOTH"
);
},
{
closed = 1;
nodes = (
"132 1 LINE",
"140 83 LINE",
"133 78 LINE",
"151 27 OFFCURVE",
"209 -8 OFFCURVE",
"277 -8 CURVE SMOOTH",
"418 -8 OFFCURVE",
"515 109 OFFCURVE",
"515 279 CURVE SMOOTH",
"515 418 OFFCURVE",
"438 507 OFFCURVE",
"319 507 CURVE SMOOTH",
"227 507 OFFCURVE",
"154 446 OFFCURVE",
"125 345 CURVE",
"146 344 LINE",
"146 710 LINE",
"68 710 LINE",
"68 1 LINE"
);
},
{
closed = 1;
nodes = (
"192 64 OFFCURVE",
"145 120 OFFCURVE",
"145 215 CURVE SMOOTH",
"145 340 OFFCURVE",
"216 435 OFFCURVE",
"309 435 CURVE SMOOTH",
"387 435 OFFCURVE",
"434 375 OFFCURVE",
"434 273 CURVE SMOOTH",
"434 146 OFFCURVE",
"371 64 OFFCURVE",
"273 64 CURVE SMOOTH"
);
}
);
};
hints = (
{
horizontal = 1;
place = "{-166, 21}";
target = up;
type = BottomGhost;
},
{
horizontal = 1;
place = "{-8, 75}";
type = Stem;
},
{
horizontal = 1;
place = "{432, 75}";
type = Stem;
},
{
place = "{72, 77}";
type = Stem;
},
{
place = "{412, 77}";
type = Stem;
},
{
horizontal = 1;
place = "{498, -20}";
target = down;
type = TopGhost;
}
);
layerId = "A3B50665-EA37-4AC6-885C-1233CA61B6BD";
paths = (
{
closed = 1;
nodes = (
"145 -190 LINE",
"145 83 LINE",
"133 78 LINE",
"151 27 OFFCURVE",
"209 -8 OFFCURVE",
"277 -8 CURVE SMOOTH",
"418 -8 OFFCURVE",
"515 109 OFFCURVE",
"515 279 CURVE SMOOTH",
"515 418 OFFCURVE",
"438 507 OFFCURVE",
"319 507 CURVE SMOOTH",
"227 507 OFFCURVE",
"154 446 OFFCURVE",
"125 345 CURVE",
"144 345 LINE",
"144 499 LINE",
"68 499 LINE",
"68 -190 LINE"
);
},
{
closed = 1;
nodes = (
"192 64 OFFCURVE",
"145 120 OFFCURVE",
"145 215 CURVE SMOOTH",
"145 340 OFFCURVE",
"216 435 OFFCURVE",
"309 435 CURVE SMOOTH",
"387 435 OFFCURVE",
"434 375 OFFCURVE",
"434 273 CURVE SMOOTH",
"434 146 OFFCURVE",
"371 64 OFFCURVE",
"273 64 CURVE SMOOTH"
);
}
);
width = 560;
},
{
background = {
paths = (
{
closed = 1;
nodes = (
"902 -190 LINE",
"902 84 LINE",
"889 66 LINE",
"909 22 OFFCURVE",
"959 -10 OFFCURVE",
"1040 -10 CURVE SMOOTH",
"1176 -10 OFFCURVE",
"1284 94 OFFCURVE",
"1284 267 CURVE SMOOTH",
"1284 417 OFFCURVE",
"1195 516 OFFCURVE",
"1065 516 CURVE SMOOTH",
"978 516 OFFCURVE",
"900 462 OFFCURVE",
"876 382 CURVE",
"901 351 LINE",
"901 508 LINE",
"756 508 LINE",
"756 -190 LINE"
);
},
{
closed = 1;
nodes = (
"941 117 OFFCURVE",
"902 156 OFFCURVE",
"902 238 CURVE SMOOTH",
"902 319 OFFCURVE",
"948 389 OFFCURVE",
"1027 389 CURVE SMOOTH",
"1092 389 OFFCURVE",
"1133 344 OFFCURVE",
"1133 267 CURVE SMOOTH",
"1133 178 OFFCURVE",
"1086 117 OFFCURVE",
"1010 117 CURVE SMOOTH"
);
},
{
closed = 1;
nodes = (
"161 0 LINE",
"179 84 LINE",
"165 64 LINE",
"185 21 OFFCURVE",
"246 -10 OFFCURVE",
"317 -10 CURVE SMOOTH",
"457 -10 OFFCURVE",
"574 101 OFFCURVE",
"574 283 CURVE SMOOTH",
"574 425 OFFCURVE",
"491 516 OFFCURVE",
"363 516 CURVE SMOOTH",
"264 516 OFFCURVE",
"188 457 OFFCURVE",
"156 351 CURVE",
"202 351 LINE",
"202 710 LINE",
"56 710 LINE",
"56 0 LINE"
);
},
{
closed = 1;
nodes = (
"237 118 OFFCURVE",
"202 159 OFFCURVE",
"202 228 CURVE SMOOTH",
"202 319 OFFCURVE",
"255 388 OFFCURVE",
"325 388 CURVE SMOOTH",
"384 388 OFFCURVE",
"419 344 OFFCURVE",
"419 270 CURVE SMOOTH",
"419 178 OFFCURVE",
"371 118 OFFCURVE",
"298 118 CURVE SMOOTH"
);
}
);
};
hints = (
{
horizontal = 1;
place = "{-174, 21}";
target = up;
type = BottomGhost;
},
{
horizontal = 1;
place = "{-8, 129}";
type = Stem;
},
{
horizontal = 1;
place = "{386, 129}";
type = Stem;
},
{
place = "{54, 134}";
type = Stem;
},
{
place = "{374, 134}";
type = Stem;
},
{
horizontal = 1;
place = "{386, 112}";
type = Stem;
},
{
place = "{54, 115}";
type = Stem;
}
);
layerId = "014D4A40-7C7F-4023-B30E-1F55CE5EA091";
paths = (
{
closed = 1;
nodes = (
"202 -190 LINE",
"202 84 LINE",
"165 64 LINE",
"185 21 OFFCURVE",
"246 -10 OFFCURVE",
"317 -10 CURVE SMOOTH",
"457 -10 OFFCURVE",
"574 101 OFFCURVE",
"574 283 CURVE SMOOTH",
"574 425 OFFCURVE",
"491 516 OFFCURVE",
"363 516 CURVE SMOOTH",
"264 516 OFFCURVE",
"188 457 OFFCURVE",
"156 351 CURVE",
"201 351 LINE",
"201 508 LINE",
"56 508 LINE",
"56 -190 LINE"
);
},
{
closed = 1;
nodes = (
"237 118 OFFCURVE",
"202 159 OFFCURVE",
"202 228 CURVE SMOOTH",
"202 319 OFFCURVE",
"255 388 OFFCURVE",
"325 388 CURVE SMOOTH",
"384 388 OFFCURVE",
"419 344 OFFCURVE",
"419 270 CURVE SMOOTH",
"419 178 OFFCURVE",
"371 118 OFFCURVE",
"298 118 CURVE SMOOTH"
);
}
);
width = 605;
}
);
leftMetricsKey = n;
note = p;
rightMetricsKey = o;
unicode = 0070;
},
{
color = 3;
glyphname = q;
lastChange = "2019-02-24 20:57:31 +0000";
layers = (
{
hints = (
{
horizontal = 1;
place = "{-166, 21}";
target = up;
type = BottomGhost;
},
{
horizontal = 1;
place = "{-8, 75}";
type = Stem;
},
{
horizontal = 1;
place = "{498, -20}";
target = down;
type = TopGhost;
},
{
place = "{64, 77}";
type = Stem;
},
{
place = "{404, 77}";
type = Stem;
},
{
horizontal = 1;
place = "{432, 75}";
type = Stem;
}
);
layerId = "A3B50665-EA37-4AC6-885C-1233CA61B6BD";
paths = (
{
closed = 1;
nodes = (
"428 498 LINE",
"420 416 LINE",
"427 421 LINE",
"409 472 OFFCURVE",
"351 507 OFFCURVE",
"283 507 CURVE SMOOTH",
"142 507 OFFCURVE",
"45 390 OFFCURVE",
"45 220 CURVE SMOOTH",
"45 81 OFFCURVE",
"122 -8 OFFCURVE",
"241 -8 CURVE SMOOTH",
"333 -8 OFFCURVE",
"406 53 OFFCURVE",
"435 154 CURVE",
"414 155 LINE",
"414 -190 LINE",
"492 -190 LINE",
"492 498 LINE"
);
},
{
closed = 1;
nodes = (
"368 435 OFFCURVE",
"415 379 OFFCURVE",
"415 284 CURVE SMOOTH",
"415 159 OFFCURVE",
"344 64 OFFCURVE",
"251 64 CURVE SMOOTH",
"173 64 OFFCURVE",
"126 124 OFFCURVE",
"126 226 CURVE SMOOTH",
"126 353 OFFCURVE",
"189 435 OFFCURVE",
"287 435 CURVE SMOOTH"
);
}
);
width = 560;
},
{
hints = (
{
horizontal = 1;
place = "{-174, 21}";
target = up;
type = BottomGhost;
},
{
horizontal = 1;
place = "{-8, 129}";
type = Stem;
},
{
horizontal = 1;
place = "{386, 129}";
type = Stem;
},
{
place = "{46, 134}";
type = Stem;
},
{
place = "{366, 134}";
type = Stem;
},
{
horizontal = 1;
place = "{498, -20}";
target = down;
type = TopGhost;
},
{
place = "{385, 115}";
type = Stem;
}
);
layerId = "014D4A40-7C7F-4023-B30E-1F55CE5EA091";
paths = (
{
closed = 1;
nodes = (
"444 506 LINE",
"426 422 LINE",
"440 442 LINE",
"420 485 OFFCURVE",
"359 516 OFFCURVE",
"288 516 CURVE SMOOTH",
"148 516 OFFCURVE",
"31 405 OFFCURVE",
"31 223 CURVE SMOOTH",
"31 81 OFFCURVE",
"114 -10 OFFCURVE",
"242 -10 CURVE SMOOTH",
"341 -10 OFFCURVE",
"417 49 OFFCURVE",
"449 155 CURVE",
"403 155 LINE",
"403 -190 LINE",
"549 -190 LINE",
"549 506 LINE"
);
},
{
closed = 1;
nodes = (
"368 388 OFFCURVE",
"403 347 OFFCURVE",
"403 278 CURVE SMOOTH",
"403 187 OFFCURVE",
"350 118 OFFCURVE",
"280 118 CURVE SMOOTH",
"221 118 OFFCURVE",
"186 162 OFFCURVE",
"186 236 CURVE SMOOTH",
"186 328 OFFCURVE",
"234 388 OFFCURVE",
"307 388 CURVE SMOOTH"
);
}
);
width = 605;
}
);
leftMetricsKey = o;
note = q;
rightMetricsKey = "=|n";
unicode = 0071;
},
{
color = 3;
glyphname = r;
lastChange = "2019-02-24 21:33:38 +0000";
layers = (
{
background = {
paths = (
{
closed = 1;
nodes = (
"364 499 LINE",
"351 504 OFFCURVE",
"335 507 OFFCURVE",
"315 507 CURVE SMOOTH",
"227 507 OFFCURVE",
"151 432 OFFCURVE",
"128 294 CURVE",
"143 293 LINE",
"143 498 LINE",
"68 498 LINE",
"68 0 LINE",
"146 0 LINE",
"146 80 LINE SMOOTH",
"146 362 OFFCURVE",
"229 431 OFFCURVE",
"312 431 CURVE SMOOTH",
"327 431 OFFCURVE",
"339 429 OFFCURVE",
"353 425 CURVE"
);
}
);
};
hints = (
{
horizontal = 1;
place = "{0, 21}";
target = up;
type = BottomGhost;
},
{
horizontal = 1;
place = "{432, 75}";
type = Stem;
},
{
place = "{72, 77}";
type = Stem;
},
{
horizontal = 1;
place = "{498, -20}";
target = down;
type = TopGhost;
}
);
layerId = "A3B50665-EA37-4AC6-885C-1233CA61B6BD";
paths = (
{
closed = 1;
nodes = (
"364 499 LINE",
"351 504 OFFCURVE",
"335 507 OFFCURVE",
"315 507 CURVE SMOOTH",
"227 507 OFFCURVE",
"151 432 OFFCURVE",
"128 294 CURVE",
"143 293 LINE",
"143 498 LINE",
"68 498 LINE",
"68 0 LINE",
"147 0 LINE",
"146 80 LINE",
"146 362 OFFCURVE",
"229 431 OFFCURVE",
"312 431 CURVE SMOOTH",
"327 431 OFFCURVE",
"339 429 OFFCURVE",
"353 425 CURVE"
);
}
);
width = 350;
},
{
background = {
paths = (
{
closed = 1;
nodes = (
"424 507 LINE",
"407 515 OFFCURVE",
"388 516 OFFCURVE",
"369 516 CURVE SMOOTH",
"285 516 OFFCURVE",
"197 456 OFFCURVE",
"171 301 CURVE",
"198 349 LINE",
"198 508 LINE",
"56 508 LINE",
"56 0 LINE",
"203 0 LINE",
"202 60 LINE",
"202 318 OFFCURVE",
"276 375 OFFCURVE",
"349 375 CURVE SMOOTH",
"368 375 OFFCURVE",
"386 372 OFFCURVE",
"399 366 CURVE"
);
}
);
};
hints = (
{
horizontal = 1;
place = "{0, 21}";
target = up;
type = BottomGhost;
},
{
horizontal = 1;
place = "{386, 129}";
type = Stem;
},
{
place = "{54, 115}";
type = Stem;
},
{
horizontal = 1;
place = "{386, 112}";
type = Stem;
},
{
place = "{54, 134}";
type = Stem;
}
);
layerId = "014D4A40-7C7F-4023-B30E-1F55CE5EA091";
paths = (
{
closed = 1;
nodes = (
"424 507 LINE",
"407 515 OFFCURVE",
"388 516 OFFCURVE",
"369 516 CURVE SMOOTH",
"285 516 OFFCURVE",
"197 456 OFFCURVE",
"171 301 CURVE",
"198 349 LINE",
"198 508 LINE",
"56 508 LINE",
"56 0 LINE",
"203 0 LINE",
"202 70 LINE",
"202 318 OFFCURVE",
"276 375 OFFCURVE",
"349 375 CURVE SMOOTH",
"368 375 OFFCURVE",
"386 372 OFFCURVE",
"399 366 CURVE"
);
}
);
width = 415;
}
);
note = r;
unicode = 0072;
},
{
color = 4;
glyphname = s;
lastChange = "2019-02-24 22:44:18 +0000";
layers = (
{
background = {
paths = (
{
closed = 1;
nodes = (
"308 -8 OFFCURVE",
"387 53 OFFCURVE",
"387 140 CURVE SMOOTH",
"387 212 OFFCURVE",
"339 248 OFFCURVE",
"282 267 CURVE SMOOTH",
"188 299 LINE SMOOTH",
"154 311 OFFCURVE",
"136 330 OFFCURVE",
"136 360 CURVE SMOOTH",
"136 405 OFFCURVE",
"171 435 OFFCURVE",
"238 435 CURVE SMOOTH",
"276 435 OFFCURVE",
"313 425 OFFCURVE",
"352 404 CURVE",
"375 472 LINE",
"346 492 OFFCURVE",
"289 506 OFFCURVE",
"238 506 CURVE SMOOTH",
"129 506 OFFCURVE",
"55 440 OFFCURVE",
"55 357 CURVE SMOOTH",
"55 290 OFFCURVE",
"94 251 OFFCURVE",
"150 232 CURVE SMOOTH",
"244 200 LINE SMOOTH",
"281 187 OFFCURVE",
"307 171 OFFCURVE",
"307 139 CURVE SMOOTH",
"307 85 OFFCURVE",
"260 63 OFFCURVE",
"197 63 CURVE SMOOTH",
"151 63 OFFCURVE",
"103 75 OFFCURVE",
"64 98 CURVE",
"34 30 LINE",
"75 5 OFFCURVE",
"129 -8 OFFCURVE",
"196 -8 CURVE SMOOTH"
);
}
);
};
hints = (
{
horizontal = 1;
place = "{-8, 75}";
type = Stem;
},
{
horizontal = 1;
place = "{432, 75}";
type = Stem;
},
{
place = "{55, 83}";
type = Stem;
},
{
place = "{358, 82}";
type = Stem;
}
);
layerId = "A3B50665-EA37-4AC6-885C-1233CA61B6BD";
paths = (
{
closed = 1;
nodes = (
"308 -8 OFFCURVE",
"387 53 OFFCURVE",
"387 140 CURVE SMOOTH",
"387 212 OFFCURVE",
"339 248 OFFCURVE",
"282 267 CURVE SMOOTH",
"188 299 LINE SMOOTH",
"154 311 OFFCURVE",
"136 330 OFFCURVE",
"136 360 CURVE SMOOTH",
"136 405 OFFCURVE",
"171 435 OFFCURVE",
"238 435 CURVE SMOOTH",
"276 435 OFFCURVE",
"313 425 OFFCURVE",
"352 404 CURVE",
"375 472 LINE",
"346 492 OFFCURVE",
"289 506 OFFCURVE",
"238 506 CURVE SMOOTH",
"129 506 OFFCURVE",
"55 440 OFFCURVE",
"55 357 CURVE SMOOTH",
"55 290 OFFCURVE",
"94 251 OFFCURVE",
"150 232 CURVE SMOOTH",
"244 200 LINE SMOOTH",
"281 187 OFFCURVE",
"307 171 OFFCURVE",
"307 139 CURVE SMOOTH",
"307 85 OFFCURVE",
"260 63 OFFCURVE",
"197 63 CURVE SMOOTH",
"151 63 OFFCURVE",
"103 75 OFFCURVE",
"64 98 CURVE",
"34 30 LINE",
"75 5 OFFCURVE",
"129 -8 OFFCURVE",
"196 -8 CURVE SMOOTH"
);
}
);
width = 420;
},
{
background = {
paths = (
{
closed = 1;
nodes = (
"332 -10 OFFCURVE",
"418 55 OFFCURVE",
"418 158 CURVE SMOOTH",
"418 216 OFFCURVE",
"385 270 OFFCURVE",
"305 296 CURVE SMOOTH",
"222 322 LINE SMOOTH",
"200 329 OFFCURVE",
"188 336 OFFCURVE",
"188 351 CURVE SMOOTH",
"188 377 OFFCURVE",
"216 394 OFFCURVE",
"259 394 CURVE SMOOTH",
"301 394 OFFCURVE",
"335 385 OFFCURVE",
"372 366 CURVE",
"411 481 LINE",
"377 503 OFFCURVE",
"324 516 OFFCURVE",
"265 516 CURVE SMOOTH",
"126 516 OFFCURVE",
"42 444 OFFCURVE",
"42 342 CURVE SMOOTH",
"42 281 OFFCURVE",
"75 226 OFFCURVE",
"157 200 CURVE SMOOTH",
"240 174 LINE SMOOTH",
"262 167 OFFCURVE",
"272 161 OFFCURVE",
"272 144 CURVE SMOOTH",
"272 123 OFFCURVE",
"251 112 OFFCURVE",
"209 112 CURVE SMOOTH",
"170 112 OFFCURVE",
"119 122 OFFCURVE",
"75 146 CURVE",
"25 33 LINE",
"72 4 OFFCURVE",
"132 -10 OFFCURVE",
"199 -10 CURVE SMOOTH"
);
}
);
};
hints = (
{
horizontal = 1;
place = "{-8, 125}";
type = Stem;
},
{
horizontal = 1;
place = "{389, 125}";
type = Stem;
},
{
place = "{35, 144}";
type = Stem;
},
{
place = "{321, 143}";
type = Stem;
}
);
layerId = "014D4A40-7C7F-4023-B30E-1F55CE5EA091";
paths = (
{
closed = 1;
nodes = (
"332 -10 OFFCURVE",
"418 55 OFFCURVE",
"418 158 CURVE SMOOTH",
"418 219 OFFCURVE",
"385 274 OFFCURVE",
"305 299 CURVE SMOOTH",
"222 325 LINE SMOOTH",
"200 332 OFFCURVE",
"188 341 OFFCURVE",
"188 355 CURVE SMOOTH",
"188 379 OFFCURVE",
"209 394 OFFCURVE",
"259 394 CURVE SMOOTH",
"301 394 OFFCURVE",
"335 385 OFFCURVE",
"372 366 CURVE",
"411 481 LINE",
"377 503 OFFCURVE",
"324 516 OFFCURVE",
"265 516 CURVE SMOOTH",
"126 516 OFFCURVE",
"42 444 OFFCURVE",
"42 342 CURVE SMOOTH",
"42 284 OFFCURVE",
"75 229 OFFCURVE",
"157 203 CURVE SMOOTH",
"240 177 LINE SMOOTH",
"266 169 OFFCURVE",
"272 160 OFFCURVE",
"272 145 CURVE SMOOTH",
"272 123 OFFCURVE",
"254 112 OFFCURVE",
"209 112 CURVE SMOOTH",
"170 112 OFFCURVE",
"119 122 OFFCURVE",
"75 146 CURVE",
"25 33 LINE",
"72 4 OFFCURVE",
"132 -10 OFFCURVE",
"199 -10 CURVE SMOOTH"
);
}
);
width = 444;
}
);
note = s;
unicode = 0073;
},
{
color = 4;
glyphname = t;
lastChange = "2019-02-24 22:44:21 +0000";
layers = (
{
background = {
paths = (
{
closed = 1;
nodes = (
"309 -10 OFFCURVE",
"348 1 OFFCURVE",
"379 21 CURVE",
"357 81 LINE",
"327 66 OFFCURVE",
"302 60 OFFCURVE",
"269 60 CURVE SMOOTH",
"205 60 OFFCURVE",
"169 104 OFFCURVE",
"170 180 CURVE SMOOTH",
"174 600 LINE",
"112 600 LINE",
"95 497 LINE",
"93 171 LINE SMOOTH",
"92 59 OFFCURVE",
"158 -10 OFFCURVE",
"268 -10 CURVE SMOOTH"
);
},
{
closed = 1;
nodes = (
"346 432 LINE",
"346 498 LINE",
"7 498 LINE",
"7 432 LINE"
);
}
);
};
layerId = "A3B50665-EA37-4AC6-885C-1233CA61B6BD";
paths = (
{
closed = 1;
nodes = (
"309 -10 OFFCURVE",
"348 1 OFFCURVE",
"379 21 CURVE",
"357 81 LINE",
"327 66 OFFCURVE",
"302 60 OFFCURVE",
"269 60 CURVE SMOOTH",
"201 60 OFFCURVE",
"169 104 OFFCURVE",
"170 180 CURVE SMOOTH",
"174 600 LINE",
"112 600 LINE",
"95 497 LINE",
"93 171 LINE SMOOTH",
"92 59 OFFCURVE",
"151 -10 OFFCURVE",
"268 -10 CURVE SMOOTH"
);
},
{
closed = 1;
nodes = (
"346 432 LINE",
"346 498 LINE",
"7 498 LINE",
"7 432 LINE"
);
}
);
width = 374;
},
{
background = {
paths = (
{
closed = 1;
nodes = (
"346 -10 OFFCURVE",
"395 4 OFFCURVE",
"429 28 CURVE",
"394 144 LINE",
"358 128 OFFCURVE",
"335 121 OFFCURVE",
"306 121 CURVE SMOOTH",
"245 121 OFFCURVE",
"224 154 OFFCURVE",
"225 228 CURVE SMOOTH",
"230 600 LINE",
"104 600 LINE",
"83 508 LINE",
"79 215 LINE SMOOTH",
"77 64 OFFCURVE",
"147 -10 OFFCURVE",
"293 -10 CURVE SMOOTH"
);
},
{
closed = 1;
nodes = (
"390 385 LINE",
"390 508 LINE",
"-2 508 LINE",
"-2 385 LINE"
);
}
);
};
guideLines = (
{
angle = 268.9258;
position = "{222, 307}";
}
);
layerId = "014D4A40-7C7F-4023-B30E-1F55CE5EA091";
paths = (
{
closed = 1;
nodes = (
"345 -10 OFFCURVE",
"395 4 OFFCURVE",
"429 28 CURVE",
"394 144 LINE",
"354 127 OFFCURVE",
"333 121 OFFCURVE",
"306 121 CURVE SMOOTH",
"247 121 OFFCURVE",
"224 151 OFFCURVE",
"225 228 CURVE SMOOTH",
"230 600 LINE",
"104 600 LINE",
"83 508 LINE",
"79 215 LINE SMOOTH",
"77 72 OFFCURVE",
"155 -10 OFFCURVE",
"293 -10 CURVE SMOOTH"
);
},
{
closed = 1;
nodes = (
"390 385 LINE",
"390 508 LINE",
"-2 508 LINE",
"-2 385 LINE"
);
}
);
width = 425;
}
);
unicode = 0074;
},
{
color = 4;
glyphname = u;
lastChange = "2019-02-24 22:44:11 +0000";
layers = (
{
background = {
paths = (
{
closed = 1;
nodes = (
"416 498 LINE",
"416 391 LINE SMOOTH",
"416 178 OFFCURVE",
"344 65 OFFCURVE",
"243 65 CURVE SMOOTH",
"174 65 OFFCURVE",
"139 110 OFFCURVE",
"140 215 CURVE SMOOTH",
"142 498 LINE",
"64 498 LINE",
"62 212 LINE SMOOTH",
"61 65 OFFCURVE",
"123 -8 OFFCURVE",
"234 -8 CURVE SMOOTH",
"322 -8 OFFCURVE",
"409 62 OFFCURVE",
"431 175 CURVE",
"417 156 LINE",
"417 0 LINE",
"492 0 LINE",
"492 498 LINE"
);
}
);
};
hints = (
{
horizontal = 1;
place = "{-8, 75}";
type = Stem;
},
{
horizontal = 1;
place = "{498, -20}";
target = down;
type = TopGhost;
},
{
place = "{68, 77}";
type = Stem;
},
{
place = "{397, 77}";
type = Stem;
},
{
horizontal = 1;
place = "{0, 21}";
target = up;
type = BottomGhost;
}
);
layerId = "A3B50665-EA37-4AC6-885C-1233CA61B6BD";
paths = (
{
closed = 1;
nodes = (
"416 498 LINE",
"416 408 LINE SMOOTH",
"416 136 OFFCURVE",
"325 64 OFFCURVE",
"248 64 CURVE SMOOTH",
"176 64 OFFCURVE",
"143 113 OFFCURVE",
"144 228 CURVE SMOOTH",
"146 498 LINE",
"68 498 LINE",
"66 219 LINE SMOOTH",
"65 65 OFFCURVE",
"123 -9 OFFCURVE",
"236 -9 CURVE SMOOTH",
"323 -9 OFFCURVE",
"410 61 OFFCURVE",
"431 188 CURVE",
"418 155 LINE",
"418 0 LINE",
"492 0 LINE",
"492 498 LINE"
);
}
);
width = 560;
},
{
background = {
paths = (
{
closed = 1;
nodes = (
"414 508 LINE",
"414 386 LINE SMOOTH",
"414 180 OFFCURVE",
"343 127 OFFCURVE",
"279 127 CURVE SMOOTH",
"230 127 OFFCURVE",
"200 153 OFFCURVE",
"201 229 CURVE SMOOTH",
"203 508 LINE",
"56 508 LINE",
"54 218 LINE SMOOTH",
"53 62 OFFCURVE",
"112 -10 OFFCURVE",
"240 -10 CURVE SMOOTH",
"327 -10 OFFCURVE",
"417 50 OFFCURVE",
"439 175 CURVE",
"415 157 LINE",
"415 0 LINE",
"559 0 LINE",
"559 508 LINE"
);
}
);
};
hints = (
{
horizontal = 1;
place = "{-8, 129}";
type = Stem;
},
{
horizontal = 1;
place = "{498, -20}";
target = down;
type = TopGhost;
},
{
place = "{50, 134}";
type = Stem;
},
{
place = "{360, 134}";
type = Stem;
},
{
horizontal = 1;
place = "{0, 21}";
target = up;
type = BottomGhost;
},
{
place = "{379, 115}";
type = Stem;
}
);
layerId = "014D4A40-7C7F-4023-B30E-1F55CE5EA091";
paths = (
{
closed = 1;
nodes = (
"408 508 LINE",
"408 428 LINE SMOOTH",
"408 190 OFFCURVE",
"338 127 OFFCURVE",
"278 127 CURVE SMOOTH",
"223 127 OFFCURVE",
"199 167 OFFCURVE",
"200 268 CURVE SMOOTH",
"202 508 LINE",
"56 508 LINE",
"54 257 LINE SMOOTH",
"53 76 OFFCURVE",
"114 -8 OFFCURVE",
"236 -8 CURVE SMOOTH",
"320 -8 OFFCURVE",
"412 52 OFFCURVE",
"439 177 CURVE",
"410 159 LINE",
"410 0 LINE",
"551 0 LINE",
"551 508 LINE"
);
}
);
width = 607;
}
);
leftMetricsKey = "=|n";
note = u;
rightMetricsKey = "=|n";
unicode = 0075;
},
{
color = 3;
glyphname = v;
lastChange = "2019-02-23 22:40:44 +0000";
layers = (
{
background = {
paths = (
{
closed = 1;
nodes = (
"248 24 LINE",
"276 23 LINE",
"128 498 LINE",
"40 498 LINE",
"199 0 LINE",
"319 0 LINE",
"511 498 LINE",
"427 498 LINE"
);
}
);
};
layerId = "A3B50665-EA37-4AC6-885C-1233CA61B6BD";
paths = (
{
closed = 1;
nodes = (
"248 24 LINE",
"276 23 LINE",
"128 498 LINE",
"40 498 LINE",
"199 0 LINE",
"319 0 LINE",
"511 498 LINE",
"427 498 LINE"
);
}
);
width = 520;
},
{
background = {
paths = (
{
closed = 1;
nodes = (
"267 71 LINE",
"299 70 LINE",
"170 508 LINE",
"12 508 LINE",
"171 0 LINE",
"381 0 LINE",
"567 508 LINE",
"422 508 LINE"
);
}
);
};
guideLines = (
{
angle = 68.7799;
position = "{322, 235}";
}
);
layerId = "014D4A40-7C7F-4023-B30E-1F55CE5EA091";
paths = (
{
closed = 1;
nodes = (
"267 71 LINE",
"299 70 LINE",
"170 508 LINE",
"12 508 LINE",
"171 0 LINE",
"381 0 LINE",
"567 508 LINE",
"422 508 LINE"
);
}
);
width = 549;
}
);
unicode = 0076;
},
{
color = 3;
glyphname = w;
lastChange = "2019-02-24 22:38:08 +0000";
layers = (
{
background = {
paths = (
{
closed = 1;
nodes = (
"248 24 LINE",
"276 23 LINE",
"128 498 LINE",
"40 498 LINE",
"199 0 LINE",
"319 0 LINE",
"511 498 LINE",
"427 498 LINE"
);
}
);
};
layerId = "A3B50665-EA37-4AC6-885C-1233CA61B6BD";
paths = (
{
closed = 1;
nodes = (
"627 24 LINE",
"652 23 LINE",
"503 497 LINE",
"423 497 LINE",
"242 24 LINE",
"271 23 LINE",
"124 497 LINE",
"40 497 LINE",
"201 0 LINE",
"307 0 LINE",
"473 424 LINE",
"450 424 LINE",
"586 0 LINE",
"692 0 LINE",
"883 497 LINE",
"802 497 LINE"
);
}
);
width = 892;
},
{
background = {
paths = (
{
closed = 1;
nodes = (
"1488 72 LINE",
"1528 71 LINE",
"1406 514 LINE",
"1266 514 LINE",
"1143 72 LINE",
"1185 71 LINE",
"1061 514 LINE",
"912 514 LINE",
"1067 0 LINE",
"1246 0 LINE",
"1341 343 LINE",
"1325 343 LINE",
"1419 0 LINE",
"1598 0 LINE",
"1753 514 LINE",
"1611 514 LINE"
);
},
{
closed = 1;
nodes = (
"267 71 LINE",
"299 70 LINE",
"170 508 LINE",
"12 508 LINE",
"171 0 LINE",
"381 0 LINE",
"567 508 LINE",
"422 508 LINE"
);
}
);
};
layerId = "014D4A40-7C7F-4023-B30E-1F55CE5EA091";
paths = (
{
closed = 1;
nodes = (
"608 71 LINE",
"648 70 LINE",
"526 508 LINE",
"386 508 LINE",
"243 71 LINE",
"285 70 LINE",
"161 508 LINE",
"12 508 LINE",
"170 0 LINE",
"346 0 LINE",
"461 339 LINE",
"445 339 LINE",
"542 0 LINE",
"718 0 LINE",
"893 508 LINE",
"751 508 LINE"
);
}
);
width = 875;
}
);
leftMetricsKey = v;
rightMetricsKey = v;
unicode = 0077;
},
{
color = 4;
glyphname = y;
lastChange = "2019-02-24 22:47:09 +0000";
layers = (
{
background = {
paths = (
{
closed = 1;
nodes = (
"416 509 LINE",
"416 419 LINE SMOOTH",
"416 147 OFFCURVE",
"325 75 OFFCURVE",
"248 75 CURVE SMOOTH",
"176 75 OFFCURVE",
"143 124 OFFCURVE",
"144 239 CURVE SMOOTH",
"146 509 LINE",
"68 509 LINE",
"66 230 LINE SMOOTH",
"65 76 OFFCURVE",
"123 2 OFFCURVE",
"236 2 CURVE SMOOTH",
"323 2 OFFCURVE",
"410 72 OFFCURVE",
"431 199 CURVE",
"418 166 LINE",
"418 11 LINE",
"492 11 LINE",
"492 509 LINE"
);
}
);
};
layerId = "A3B50665-EA37-4AC6-885C-1233CA61B6BD";
paths = (
{
closed = 1;
nodes = (
"405 -200 OFFCURVE",
"492 -107 OFFCURVE",
"492 74 CURVE SMOOTH",
"492 498 LINE",
"416 498 LINE",
"416 419 LINE SMOOTH",
"416 147 OFFCURVE",
"325 75 OFFCURVE",
"248 75 CURVE SMOOTH",
"176 75 OFFCURVE",
"143 124 OFFCURVE",
"144 229 CURVE SMOOTH",
"146 498 LINE",
"68 498 LINE",
"66 220 LINE SMOOTH",
"65 76 OFFCURVE",
"123 2 OFFCURVE",
"236 2 CURVE SMOOTH",
"325 2 OFFCURVE",
"410 72 OFFCURVE",
"431 199 CURVE",
"417 156 LINE",
"417 84 LINE SMOOTH",
"417 -69 OFFCURVE",
"363 -129 OFFCURVE",
"239 -129 CURVE SMOOTH",
"188 -129 OFFCURVE",
"135 -117 OFFCURVE",
"89 -96 CURVE",
"69 -166 LINE",
"117 -189 OFFCURVE",
"182 -200 OFFCURVE",
"237 -200 CURVE SMOOTH"
);
}
);
width = 560;
},
{
background = {
paths = (
{
closed = 1;
nodes = (
"408 525 LINE",
"408 445 LINE SMOOTH",
"408 207 OFFCURVE",
"338 144 OFFCURVE",
"278 144 CURVE SMOOTH",
"223 144 OFFCURVE",
"199 184 OFFCURVE",
"200 285 CURVE SMOOTH",
"202 525 LINE",
"56 525 LINE",
"54 274 LINE SMOOTH",
"53 93 OFFCURVE",
"114 9 OFFCURVE",
"236 9 CURVE SMOOTH",
"320 9 OFFCURVE",
"412 69 OFFCURVE",
"439 194 CURVE",
"410 176 LINE",
"410 17 LINE",
"551 17 LINE",
"551 525 LINE"
);
}
);
};
guideLines = (
{
angle = 68.7799;
position = "{316, 235}";
}
);
layerId = "014D4A40-7C7F-4023-B30E-1F55CE5EA091";
paths = (
{
closed = 1;
nodes = (
"430 -200 OFFCURVE",
"551 -104 OFFCURVE",
"551 96 CURVE SMOOTH",
"551 508 LINE",
"408 508 LINE",
"408 445 LINE SMOOTH",
"408 207 OFFCURVE",
"338 144 OFFCURVE",
"278 144 CURVE SMOOTH",
"223 144 OFFCURVE",
"199 184 OFFCURVE",
"200 275 CURVE SMOOTH",
"202 508 LINE",
"56 508 LINE",
"54 264 LINE SMOOTH",
"52 93 OFFCURVE",
"114 9 OFFCURVE",
"236 9 CURVE SMOOTH",
"320 9 OFFCURVE",
"412 69 OFFCURVE",
"439 194 CURVE",
"409 157 LINE",
"409 89 LINE SMOOTH",
"409 -28 OFFCURVE",
"352 -67 OFFCURVE",
"241 -67 CURVE SMOOTH",
"197 -67 OFFCURVE",
"135 -54 OFFCURVE",
"89 -31 CURVE",
"54 -161 LINE",
"108 -189 OFFCURVE",
"177 -200 OFFCURVE",
"239 -200 CURVE SMOOTH"
);
}
);
width = 607;
}
);
leftMetricsKey = u;
widthMetricsKey = u;
unicode = 0079;
},
{
color = 4;
glyphname = a.ss01;
lastChange = "2019-02-28 10:03:50 +0000";
layers = (
{
background = {
paths = (
{
closed = 1;
nodes = (
"1134 498 LINE",
"1126 416 LINE",
"1133 421 LINE",
"1115 472 OFFCURVE",
"1057 507 OFFCURVE",
"989 507 CURVE SMOOTH",
"848 507 OFFCURVE",
"751 390 OFFCURVE",
"751 220 CURVE SMOOTH",
"751 81 OFFCURVE",
"828 -8 OFFCURVE",
"947 -8 CURVE SMOOTH",
"1039 -8 OFFCURVE",
"1112 53 OFFCURVE",
"1141 154 CURVE",
"1120 154 LINE",
"1120 0 LINE",
"1198 0 LINE",
"1198 498 LINE"
);
},
{
closed = 1;
nodes = (
"1074 435 OFFCURVE",
"1121 379 OFFCURVE",
"1121 284 CURVE SMOOTH",
"1121 159 OFFCURVE",
"1050 64 OFFCURVE",
"957 64 CURVE SMOOTH",
"879 64 OFFCURVE",
"832 124 OFFCURVE",
"832 226 CURVE SMOOTH",
"832 353 OFFCURVE",
"895 435 OFFCURVE",
"993 435 CURVE SMOOTH"
);
},
{
closed = 1;
nodes = (
"431 499 LINE",
"431 409 LINE SMOOTH",
"431 137 OFFCURVE",
"340 65 OFFCURVE",
"261 65 CURVE SMOOTH",
"187 65 OFFCURVE",
"155 114 OFFCURVE",
"155 229 CURVE SMOOTH",
"155 499 LINE",
"77 499 LINE",
"77 220 LINE SMOOTH",
"77 66 OFFCURVE",
"134 -8 OFFCURVE",
"249 -8 CURVE SMOOTH",
"338 -8 OFFCURVE",
"425 62 OFFCURVE",
"446 189 CURVE",
"433 156 LINE",
"433 1 LINE",
"509 1 LINE",
"509 499 LINE"
);
}
);
};
hints = (
{
horizontal = 1;
place = "{-8, 75}";
type = Stem;
},
{
horizontal = 1;
place = "{432, 75}";
type = Stem;
},
{
horizontal = 1;
place = "{664, -20}";
target = down;
type = TopGhost;
},
{
place = "{64, 77}";
type = Stem;
},
{
place = "{404, 77}";
type = Stem;
},
{
horizontal = 1;
place = "{0, 21}";
target = up;
type = BottomGhost;
}
);
layerId = "A3B50665-EA37-4AC6-885C-1233CA61B6BD";
paths = (
{
closed = 1;
nodes = (
"434 498 LINE",
"426 416 LINE",
"433 421 LINE",
"415 472 OFFCURVE",
"354 507 OFFCURVE",
"283 507 CURVE SMOOTH",
"143 507 OFFCURVE",
"45 390 OFFCURVE",
"45 220 CURVE SMOOTH",
"45 81 OFFCURVE",
"123 -8 OFFCURVE",
"241 -8 CURVE SMOOTH",
"336 -8 OFFCURVE",
"412 56 OFFCURVE",
"441 160 CURVE",
"420 154 LINE",
"420 0 LINE",
"498 0 LINE",
"498 498 LINE"
);
},
{
closed = 1;
nodes = (
"371 435 OFFCURVE",
"421 379 OFFCURVE",
"421 284 CURVE SMOOTH",
"421 159 OFFCURVE",
"347 64 OFFCURVE",
"251 64 CURVE SMOOTH",
"174 64 OFFCURVE",
"126 124 OFFCURVE",
"126 226 CURVE SMOOTH",
"126 353 OFFCURVE",
"190 435 OFFCURVE",
"287 435 CURVE SMOOTH"
);
}
);
width = 566;
},
{
background = {
paths = (
{
closed = 1;
nodes = (
"1050 506 LINE",
"1032 422 LINE",
"1046 442 LINE",
"1026 485 OFFCURVE",
"965 516 OFFCURVE",
"894 516 CURVE SMOOTH",
"754 516 OFFCURVE",
"637 405 OFFCURVE",
"637 223 CURVE SMOOTH",
"637 81 OFFCURVE",
"720 -10 OFFCURVE",
"848 -10 CURVE SMOOTH",
"947 -10 OFFCURVE",
"1023 49 OFFCURVE",
"1055 155 CURVE",
"1009 155 LINE",
"1009 0 LINE",
"1155 0 LINE",
"1155 506 LINE"
);
},
{
closed = 1;
nodes = (
"974 388 OFFCURVE",
"1009 347 OFFCURVE",
"1009 278 CURVE SMOOTH",
"1009 187 OFFCURVE",
"956 118 OFFCURVE",
"886 118 CURVE SMOOTH",
"827 118 OFFCURVE",
"792 162 OFFCURVE",
"792 236 CURVE SMOOTH",
"792 328 OFFCURVE",
"840 388 OFFCURVE",
"913 388 CURVE SMOOTH"
);
},
{
closed = 1;
nodes = (
"428 506 LINE",
"428 426 LINE SMOOTH",
"428 188 OFFCURVE",
"358 125 OFFCURVE",
"295 125 CURVE SMOOTH",
"237 125 OFFCURVE",
"214 165 OFFCURVE",
"214 266 CURVE SMOOTH",
"214 506 LINE",
"68 506 LINE",
"68 255 LINE SMOOTH",
"68 74 OFFCURVE",
"128 -10 OFFCURVE",
"253 -10 CURVE SMOOTH",
"340 -10 OFFCURVE",
"432 50 OFFCURVE",
"459 175 CURVE",
"430 157 LINE",
"430 -2 LINE",
"574 -2 LINE",
"574 506 LINE"
);
}
);
};
hints = (
{
horizontal = 1;
place = "{-8, 129}";
type = Stem;
},
{
horizontal = 1;
place = "{386, 129}";
type = Stem;
},
{
horizontal = 1;
place = "{672, -20}";
target = down;
type = TopGhost;
},
{
place = "{46, 134}";
type = Stem;
},
{
place = "{366, 134}";
type = Stem;
},
{
horizontal = 1;
place = "{0, 21}";
target = up;
type = BottomGhost;
},
{
place = "{385, 115}";
type = Stem;
}
);
layerId = "014D4A40-7C7F-4023-B30E-1F55CE5EA091";
paths = (
{
closed = 1;
nodes = (
"450 506 LINE",
"432 422 LINE",
"446 442 LINE",
"426 485 OFFCURVE",
"362 516 OFFCURVE",
"288 516 CURVE SMOOTH",
"141 516 OFFCURVE",
"31 398 OFFCURVE",
"31 223 CURVE SMOOTH",
"31 81 OFFCURVE",
"111 -10 OFFCURVE",
"242 -10 CURVE SMOOTH",
"344 -10 OFFCURVE",
"418 49 OFFCURVE",
"450 155 CURVE",
"409 155 LINE",
"409 0 LINE",
"555 0 LINE",
"555 506 LINE"
);
},
{
closed = 1;
nodes = (
"371 388 OFFCURVE",
"409 347 OFFCURVE",
"409 278 CURVE SMOOTH",
"409 187 OFFCURVE",
"353 118 OFFCURVE",
"280 118 CURVE SMOOTH",
"222 118 OFFCURVE",
"186 161 OFFCURVE",
"186 236 CURVE SMOOTH",
"186 328 OFFCURVE",
"234 388 OFFCURVE",
"308 388 CURVE SMOOTH"
);
}
);
width = 611;
}
);
leftKerningGroup = o;
leftMetricsKey = o;
note = d;
rightMetricsKey = "=|n";
},
{
color = 3;
glyphname = e.ss01;
lastChange = "2019-02-24 22:52:18 +0000";
layers = (
{
background = {
paths = (
{
closed = 1;
nodes = (
"359 -8 OFFCURVE",
"431 17 OFFCURVE",
"457 42 CURVE",
"429 101 LINE",
"388 75 OFFCURVE",
"344 63 OFFCURVE",
"290 63 CURVE SMOOTH",
"195 63 OFFCURVE",
"123 115 OFFCURVE",
"123 231 CURVE SMOOTH",
"123 246 LINE SMOOTH",
"123 361 OFFCURVE",
"186 440 OFFCURVE",
"281 440 CURVE SMOOTH",
"367 440 OFFCURVE",
"419 378 OFFCURVE",
"411 270 CURVE",
"434 284 LINE",
"90 284 LINE",
"90 220 LINE",
"485 220 LINE",
"499 393 OFFCURVE",
"426 507 OFFCURVE",
"284 507 CURVE SMOOTH",
"141 507 OFFCURVE",
"45 392 OFFCURVE",
"45 238 CURVE SMOOTH",
"45 78 OFFCURVE",
"141 -8 OFFCURVE",
"286 -8 CURVE SMOOTH"
);
}
);
};
hints = (
{
horizontal = 1;
place = "{-8, 75}";
type = Stem;
},
{
horizontal = 1;
place = "{433, 74}";
type = Stem;
},
{
place = "{64, 76}";
type = Stem;
},
{
place = "{389, 80}";
type = Stem;
}
);
layerId = "A3B50665-EA37-4AC6-885C-1233CA61B6BD";
paths = (
{
closed = 1;
nodes = (
"359 -8 OFFCURVE",
"431 17 OFFCURVE",
"457 42 CURVE",
"429 101 LINE",
"388 75 OFFCURVE",
"344 63 OFFCURVE",
"290 63 CURVE SMOOTH",
"195 63 OFFCURVE",
"123 115 OFFCURVE",
"123 231 CURVE SMOOTH",
"123 246 LINE SMOOTH",
"123 365 OFFCURVE",
"193 440 OFFCURVE",
"301 440 CURVE SMOOTH",
"366 440 OFFCURVE",
"408 408 OFFCURVE",
"408 359 CURVE SMOOTH",
"408 304 OFFCURVE",
"366 269 OFFCURVE",
"271 267 CURVE SMOOTH",
"110 263 LINE",
"110 198 LINE",
"274 204 LINE SMOOTH",
"405 209 OFFCURVE",
"481 266 OFFCURVE",
"481 362 CURVE SMOOTH",
"481 447 OFFCURVE",
"408 507 OFFCURVE",
"304 507 CURVE SMOOTH",
"149 507 OFFCURVE",
"45 398 OFFCURVE",
"45 236 CURVE SMOOTH",
"45 78 OFFCURVE",
"141 -8 OFFCURVE",
"286 -8 CURVE SMOOTH"
);
}
);
width = 530;
},
{
background = {
paths = (
{
closed = 1;
nodes = (
"379 -10 OFFCURVE",
"450 8 OFFCURVE",
"498 40 CURVE",
"450 146 LINE",
"408 125 OFFCURVE",
"361 113 OFFCURVE",
"324 113 CURVE SMOOTH",
"228 113 OFFCURVE",
"177 160 OFFCURVE",
"177 245 CURVE SMOOTH",
"177 258 LINE SMOOTH",
"177 348 OFFCURVE",
"217 404 OFFCURVE",
"293 404 CURVE SMOOTH",
"354 404 OFFCURVE",
"392 364 OFFCURVE",
"388 298 CURVE",
"408 310 LINE",
"141 310 LINE",
"141 207 LINE",
"522 207 LINE",
"542 402 OFFCURVE",
"447 516 OFFCURVE",
"299 516 CURVE SMOOTH",
"142 516 OFFCURVE",
"31 399 OFFCURVE",
"31 241 CURVE SMOOTH",
"31 81 OFFCURVE",
"139 -10 OFFCURVE",
"308 -10 CURVE SMOOTH"
);
}
);
};
hints = (
{
horizontal = 1;
place = "{-8, 129}";
type = Stem;
},
{
horizontal = 1;
place = "{391, 123}";
type = Stem;
},
{
place = "{46, 133}";
type = Stem;
},
{
place = "{345, 141}";
type = Stem;
}
);
layerId = "014D4A40-7C7F-4023-B30E-1F55CE5EA091";
paths = (
{
closed = 1;
nodes = (
"379 -10 OFFCURVE",
"450 8 OFFCURVE",
"498 40 CURVE",
"450 146 LINE",
"408 125 OFFCURVE",
"361 113 OFFCURVE",
"324 113 CURVE SMOOTH",
"228 113 OFFCURVE",
"177 160 OFFCURVE",
"177 245 CURVE SMOOTH",
"177 265 LINE SMOOTH",
"177 337 OFFCURVE",
"228 403 OFFCURVE",
"315 403 CURVE SMOOTH",
"372 403 OFFCURVE",
"391 381 OFFCURVE",
"391 353 CURVE SMOOTH",
"391 322 OFFCURVE",
"373 300 OFFCURVE",
"290 297 CURVE SMOOTH",
"151 292 LINE",
"151 187 LINE",
"294 192 LINE SMOOTH",
"452 198 OFFCURVE",
"525 261 OFFCURVE",
"525 359 CURVE SMOOTH",
"525 449 OFFCURVE",
"447 515 OFFCURVE",
"323 515 CURVE SMOOTH",
"149 515 OFFCURVE",
"31 398 OFFCURVE",
"31 241 CURVE SMOOTH",
"31 81 OFFCURVE",
"139 -10 OFFCURVE",
"308 -10 CURVE SMOOTH"
);
}
);
width = 555;
}
);
leftKerningGroup = o;
leftMetricsKey = o;
widthMetricsKey = e;
note = e;
},
{
glyphname = period;
lastChange = "2019-02-07 12:44:15 +0000";
layers = (
{
hints = (
{
horizontal = 1;
place = "{0, 99}";
type = Stem;
},
{
place = "{61, 100}";
type = Stem;
}
);
layerId = "A3B50665-EA37-4AC6-885C-1233CA61B6BD";
paths = (
{
closed = 1;
nodes = (
"80 99 LINE SMOOTH",
"69 99 OFFCURVE",
"61 90 OFFCURVE",
"61 80 CURVE SMOOTH",
"61 18 LINE SMOOTH",
"61 9 OFFCURVE",
"69 0 OFFCURVE",
"80 0 CURVE SMOOTH",
"142 0 LINE SMOOTH",
"152 0 OFFCURVE",
"160 9 OFFCURVE",
"160 18 CURVE SMOOTH",
"160 81 LINE SMOOTH",
"160 90 OFFCURVE",
"152 99 OFFCURVE",
"142 99 CURVE SMOOTH"
);
}
);
width = 221;
},
{
hints = (
{
horizontal = 1;
place = "{0, 154}";
type = Stem;
},
{
place = "{44, 154}";
type = Stem;
}
);
layerId = "014D4A40-7C7F-4023-B30E-1F55CE5EA091";
paths = (
{
closed = 1;
nodes = (
"77 154 LINE SMOOTH",
"52 154 OFFCURVE",
"44 138 OFFCURVE",
"44 121 CURVE SMOOTH",
"44 33 LINE SMOOTH",
"44 17 OFFCURVE",
"52 0 OFFCURVE",
"77 0 CURVE SMOOTH",
"165 0 LINE SMOOTH",
"190 0 OFFCURVE",
"198 17 OFFCURVE",
"198 33 CURVE SMOOTH",
"198 129 LINE SMOOTH",
"198 146 OFFCURVE",
"188 154 OFFCURVE",
"163 154 CURVE SMOOTH"
);
}
);
width = 242;
}
);
note = period;
unicode = 002E;
},
